<svg width="28" height="26" viewBox="0 0 28 26" fill="none" xmlns="http://www.w3.org/2000/svg">
<path fill-rule="evenodd" clip-rule="evenodd" d="M13.1799 18.1187L12.6999 8.36068H15.2999L14.7999 18.1207L13.1799 18.1187ZM13.9679 21.9207C13.8009 21.9245 13.6349 21.8933 13.4806 21.8293C13.3263 21.7652 13.1871 21.6696 13.0719 21.5487C12.9519 21.4344 12.8569 21.2965 12.7929 21.1436C12.7289 20.9908 12.6972 20.8264 12.6999 20.6607C12.6999 20.3127 12.8239 20.0153 13.0719 19.7687C13.1875 19.6484 13.3268 19.5536 13.4811 19.4903C13.6354 19.4269 13.8012 19.3964 13.9679 19.4007C14.3052 19.4007 14.5985 19.522 14.8479 19.7647C15.0959 20.0073 15.2199 20.306 15.2199 20.6607C15.2223 20.8275 15.19 20.9929 15.1249 21.1465C15.0598 21.3001 14.9634 21.4384 14.8419 21.5527C14.7288 21.6702 14.593 21.7634 14.4428 21.8267C14.2925 21.8899 14.1309 21.9219 13.9679 21.9207ZM1.99988 26.0007C1.65286 26.0007 1.31179 25.9105 1.0102 25.7389C0.708607 25.5672 0.456867 25.32 0.279723 25.0216C0.102578 24.7232 0.00612359 24.3839 -0.000160282 24.0369C-0.00644415 23.6899 0.0776585 23.3473 0.243882 23.0427L12.2439 1.04268C12.4159 0.727148 12.6698 0.463795 12.9788 0.280314C13.2878 0.096832 13.6405 0 13.9999 0C14.3593 0 14.712 0.096832 15.021 0.280314C15.33 0.463795 15.5839 0.727148 15.7559 1.04268L27.7559 23.0427C27.9221 23.3473 28.0062 23.6899 27.9999 24.0369C27.9936 24.3839 27.8972 24.7232 27.72 25.0216C27.5429 25.32 27.2912 25.5672 26.9896 25.7389C26.688 25.9105 26.3469 26.0007 25.9999 26.0007H1.99988ZM1.99988 24.0007H25.9999L13.9999 2.00068L1.99988 24.0007Z" fill="#CA0061"/>
</svg>
