<svg width="10" height="18" viewBox="0 0 10 18" fill="none" xmlns="http://www.w3.org/2000/svg">
<path d="M4.99984 17.3333C3.72206 17.3333 2.63873 16.8889 1.74984 16C0.860948 15.1111 0.416504 14.0278 0.416504 12.75V4.00001C0.416504 3.08334 0.742893 2.29862 1.39567 1.64584C2.04845 0.993061 2.83317 0.666672 3.74984 0.666672C4.6665 0.666672 5.45123 0.993061 6.104 1.64584C6.75678 2.29862 7.08317 3.08334 7.08317 4.00001V11.9167C7.08317 12.5 6.88178 12.9931 6.479 13.3958C6.07623 13.7986 5.58317 14 4.99984 14C4.4165 14 3.92345 13.7986 3.52067 13.3958C3.11789 12.9931 2.9165 12.5 2.9165 11.9167V4.00001H4.1665V11.9167C4.1665 12.1528 4.24637 12.3507 4.40609 12.5104C4.56581 12.6701 4.76373 12.75 4.99984 12.75C5.23595 12.75 5.43387 12.6701 5.59359 12.5104C5.75331 12.3507 5.83317 12.1528 5.83317 11.9167V4.00001C5.83317 3.41667 5.63178 2.92362 5.229 2.52084C4.82623 2.11806 4.33317 1.91667 3.74984 1.91667C3.1665 1.91667 2.67345 2.11806 2.27067 2.52084C1.86789 2.92362 1.6665 3.41667 1.6665 4.00001V12.75C1.6665 13.6667 1.99289 14.4514 2.64567 15.1042C3.29845 15.757 4.08317 16.0833 4.99984 16.0833C5.9165 16.0833 6.70123 15.757 7.354 15.1042C8.00678 14.4514 8.33317 13.6667 8.33317 12.75V4.00001H9.58317V12.75C9.58317 14.0278 9.13873 15.1111 8.24984 16C7.36095 16.8889 6.27762 17.3333 4.99984 17.3333Z" fill="#818D99"/>
</svg>
