<svg width="28" height="27" viewBox="0 0 28 27" fill="none" xmlns="http://www.w3.org/2000/svg">
<path d="M5.80033 20.4458C6.93366 19.5792 8.20033 18.8958 9.60033 18.3958C11.0003 17.8958 12.467 17.6458 14.0003 17.6458C15.5337 17.6458 17.0003 17.8958 18.4003 18.3958C19.8003 18.8958 21.067 19.5792 22.2003 20.4458C22.9781 19.5347 23.5837 18.5014 24.017 17.3458C24.4503 16.1903 24.667 14.9569 24.667 13.6458C24.667 10.6903 23.6281 8.17361 21.5503 6.09583C19.4725 4.01806 16.9559 2.97917 14.0003 2.97917C11.0448 2.97917 8.5281 4.01806 6.45033 6.09583C4.37255 8.17361 3.33366 10.6903 3.33366 13.6458C3.33366 14.9569 3.55033 16.1903 3.98366 17.3458C4.41699 18.5014 5.02255 19.5347 5.80033 20.4458ZM14.0003 14.9792C12.6892 14.9792 11.5837 14.5292 10.6837 13.6292C9.78366 12.7292 9.33366 11.6236 9.33366 10.3125C9.33366 9.00139 9.78366 7.89583 10.6837 6.99583C11.5837 6.09583 12.6892 5.64583 14.0003 5.64583C15.3114 5.64583 16.417 6.09583 17.317 6.99583C18.217 7.89583 18.667 9.00139 18.667 10.3125C18.667 11.6236 18.217 12.7292 17.317 13.6292C16.417 14.5292 15.3114 14.9792 14.0003 14.9792ZM14.0003 26.9792C12.1559 26.9792 10.4225 26.6292 8.80033 25.9292C7.1781 25.2292 5.76699 24.2792 4.56699 23.0792C3.36699 21.8792 2.41699 20.4681 1.71699 18.8458C1.01699 17.2236 0.666992 15.4903 0.666992 13.6458C0.666992 11.8014 1.01699 10.0681 1.71699 8.44583C2.41699 6.82361 3.36699 5.4125 4.56699 4.2125C5.76699 3.0125 7.1781 2.0625 8.80033 1.3625C10.4225 0.6625 12.1559 0.3125 14.0003 0.3125C15.8448 0.3125 17.5781 0.6625 19.2003 1.3625C20.8225 2.0625 22.2337 3.0125 23.4337 4.2125C24.6337 5.4125 25.5837 6.82361 26.2837 8.44583C26.9837 10.0681 27.3337 11.8014 27.3337 13.6458C27.3337 15.4903 26.9837 17.2236 26.2837 18.8458C25.5837 20.4681 24.6337 21.8792 23.4337 23.0792C22.2337 24.2792 20.8225 25.2292 19.2003 25.9292C17.5781 26.6292 15.8448 26.9792 14.0003 26.9792Z" fill="#818D99"/>
</svg>
