<svg width="6" height="6" viewBox="0 0 6 6" fill="none" xmlns="http://www.w3.org/2000/svg">
<path fill-rule="evenodd" clip-rule="evenodd" d="M2.99959 0.912474C2.52491 0.912474 2.0609 1.05323 1.66622 1.31695C1.27154 1.58066 0.963927 1.95549 0.782277 2.39403C0.600627 2.83258 0.553099 3.31514 0.645703 3.78069C0.738308 4.24624 0.966885 4.67388 1.30253 5.00953C1.63818 5.34518 2.06582 5.57375 2.53137 5.66636C2.99693 5.75896 3.47949 5.71143 3.91803 5.52978C4.35657 5.34813 4.7314 5.04052 4.99511 4.64584C5.25883 4.25116 5.39959 3.78715 5.39959 3.31247C5.39886 2.67618 5.14577 2.06615 4.69584 1.61622C4.24591 1.16629 3.63588 0.9132 2.99959 0.912474Z" fill="#272D32"/>
</svg>
