<svg width="18" height="18" viewBox="0 0 18 18" fill="none" xmlns="http://www.w3.org/2000/svg">
<path d="M5.99984 13.1673L8.99984 10.1673L11.9998 13.1673L13.1665 12.0007L10.1665 9.00066L13.1665 6.00066L11.9998 4.83399L8.99984 7.834L5.99984 4.83399L4.83317 6.00066L7.83317 9.00066L4.83317 12.0007L5.99984 13.1673ZM8.99984 17.334C7.84706 17.334 6.76373 17.1152 5.74984 16.6777C4.73595 16.2402 3.854 15.6465 3.104 14.8965C2.354 14.1465 1.76025 13.2646 1.32275 12.2507C0.885254 11.2368 0.666504 10.1534 0.666504 9.00066C0.666504 7.84788 0.885254 6.76455 1.32275 5.75066C1.76025 4.73677 2.354 3.85483 3.104 3.10483C3.854 2.35483 4.73595 1.76108 5.74984 1.32358C6.76373 0.886078 7.84706 0.667328 8.99984 0.667328C10.1526 0.667328 11.2359 0.886078 12.2498 1.32358C13.2637 1.76108 14.1457 2.35483 14.8957 3.10483C15.6457 3.85483 16.2394 4.73677 16.6769 5.75066C17.1144 6.76455 17.3332 7.84788 17.3332 9.00066C17.3332 10.1534 17.1144 11.2368 16.6769 12.2507C16.2394 13.2646 15.6457 14.1465 14.8957 14.8965C14.1457 15.6465 13.2637 16.2402 12.2498 16.6777C11.2359 17.1152 10.1526 17.334 8.99984 17.334ZM8.99984 15.6673C10.8609 15.6673 12.4373 15.0215 13.729 13.7298C15.0207 12.4382 15.6665 10.8618 15.6665 9.00066C15.6665 7.13955 15.0207 5.56316 13.729 4.27149C12.4373 2.97983 10.8609 2.33399 8.99984 2.33399C7.13873 2.33399 5.56234 2.97983 4.27067 4.27149C2.979 5.56316 2.33317 7.13955 2.33317 9.00066C2.33317 10.8618 2.979 12.4382 4.27067 13.7298C5.56234 15.0215 7.13873 15.6673 8.99984 15.6673Z" fill="#818D99"/>
</svg>
