<svg width="60" height="24" viewBox="0 0 60 24" fill="none" xmlns="http://www.w3.org/2000/svg">
<rect x="0.75" y="0.75" width="58.5" height="22.5" rx="3.25" fill="#FFF7F7"/>
<rect x="0.75" y="0.75" width="58.5" height="22.5" rx="3.25" stroke="#EB0000" stroke-width="1.5"/>
<path d="M15.1641 13.835H16.4766C16.4082 14.4639 16.2282 15.0267 15.9365 15.5234C15.6449 16.0202 15.2324 16.4144 14.6992 16.7061C14.166 16.9932 13.5007 17.1367 12.7031 17.1367C12.1198 17.1367 11.5889 17.0273 11.1104 16.8086C10.6364 16.5898 10.2285 16.2799 9.88672 15.8789C9.54492 15.4733 9.2806 14.988 9.09375 14.4229C8.91146 13.8532 8.82031 13.2197 8.82031 12.5225V11.5312C8.82031 10.834 8.91146 10.2028 9.09375 9.6377C9.2806 9.06803 9.5472 8.5804 9.89355 8.1748C10.2445 7.76921 10.666 7.45703 11.1582 7.23828C11.6504 7.01953 12.2041 6.91016 12.8193 6.91016C13.5713 6.91016 14.207 7.05143 14.7266 7.33398C15.2461 7.61654 15.6494 8.00846 15.9365 8.50977C16.2282 9.00651 16.4082 9.58301 16.4766 10.2393H15.1641C15.1003 9.77441 14.9818 9.37565 14.8086 9.04297C14.6354 8.70573 14.3893 8.44596 14.0703 8.26367C13.7513 8.08138 13.3343 7.99023 12.8193 7.99023C12.3773 7.99023 11.9876 8.07454 11.6504 8.24316C11.3177 8.41178 11.0374 8.65104 10.8096 8.96094C10.5863 9.27083 10.4176 9.64225 10.3037 10.0752C10.1898 10.5081 10.1328 10.9889 10.1328 11.5176V12.5225C10.1328 13.0101 10.1829 13.4681 10.2832 13.8965C10.388 14.3249 10.5452 14.7008 10.7549 15.0244C10.9645 15.348 11.2311 15.6032 11.5547 15.79C11.8783 15.9723 12.2611 16.0635 12.7031 16.0635C13.2637 16.0635 13.7103 15.9746 14.043 15.7969C14.3757 15.6191 14.6263 15.3639 14.7949 15.0312C14.9681 14.6986 15.0911 14.2998 15.1641 13.835ZM19.3477 10.7656V17H18.083V9.60352H19.3135L19.3477 10.7656ZM21.6582 9.5625L21.6514 10.7383C21.5465 10.7155 21.4463 10.7018 21.3506 10.6973C21.2594 10.6882 21.1546 10.6836 21.0361 10.6836C20.7445 10.6836 20.487 10.7292 20.2637 10.8203C20.0404 10.9115 19.8512 11.0391 19.6963 11.2031C19.5413 11.3672 19.4183 11.5632 19.3271 11.791C19.2406 12.0143 19.1836 12.2604 19.1562 12.5293L18.8008 12.7344C18.8008 12.2878 18.8441 11.8685 18.9307 11.4766C19.0218 11.0846 19.1608 10.7383 19.3477 10.4375C19.5345 10.1322 19.7715 9.89518 20.0586 9.72656C20.3503 9.55339 20.6966 9.4668 21.0977 9.4668C21.1888 9.4668 21.2936 9.47819 21.4121 9.50098C21.5306 9.51921 21.6126 9.53971 21.6582 9.5625ZM24.2012 9.60352V17H22.9297V9.60352H24.2012ZM22.834 7.6416C22.834 7.43652 22.8955 7.26335 23.0186 7.12207C23.1462 6.98079 23.333 6.91016 23.5791 6.91016C23.8206 6.91016 24.0052 6.98079 24.1328 7.12207C24.265 7.26335 24.3311 7.43652 24.3311 7.6416C24.3311 7.83757 24.265 8.00618 24.1328 8.14746C24.0052 8.28418 23.8206 8.35254 23.5791 8.35254C23.333 8.35254 23.1462 8.28418 23.0186 8.14746C22.8955 8.00618 22.834 7.83757 22.834 7.6416ZM29.3281 9.60352V10.5742H25.3291V9.60352H29.3281ZM26.6826 7.80566H27.9473V15.168C27.9473 15.4186 27.986 15.6077 28.0635 15.7354C28.141 15.863 28.2412 15.9473 28.3643 15.9883C28.4873 16.0293 28.6195 16.0498 28.7607 16.0498C28.8656 16.0498 28.9749 16.0407 29.0889 16.0225C29.2074 15.9997 29.2962 15.9814 29.3555 15.9678L29.3623 17C29.262 17.0319 29.1299 17.0615 28.9658 17.0889C28.8063 17.1208 28.6126 17.1367 28.3848 17.1367C28.0749 17.1367 27.79 17.0752 27.5303 16.9521C27.2705 16.8291 27.0632 16.624 26.9082 16.3369C26.7578 16.0452 26.6826 15.6533 26.6826 15.1611V7.80566ZM32.1855 9.60352V17H30.9141V9.60352H32.1855ZM30.8184 7.6416C30.8184 7.43652 30.8799 7.26335 31.0029 7.12207C31.1305 6.98079 31.3174 6.91016 31.5635 6.91016C31.805 6.91016 31.9896 6.98079 32.1172 7.12207C32.2493 7.26335 32.3154 7.43652 32.3154 7.6416C32.3154 7.83757 32.2493 8.00618 32.1172 8.14746C31.9896 8.28418 31.805 8.35254 31.5635 8.35254C31.3174 8.35254 31.1305 8.28418 31.0029 8.14746C30.8799 8.00618 30.8184 7.83757 30.8184 7.6416ZM37.1758 16.0977C37.4766 16.0977 37.7546 16.0361 38.0098 15.9131C38.265 15.79 38.4746 15.6214 38.6387 15.4072C38.8027 15.1885 38.8962 14.9401 38.9189 14.6621H40.1221C40.0993 15.0996 39.9512 15.5075 39.6777 15.8857C39.4089 16.2594 39.0557 16.5625 38.6182 16.7949C38.1807 17.0228 37.6999 17.1367 37.1758 17.1367C36.6198 17.1367 36.1344 17.0387 35.7197 16.8428C35.3096 16.6468 34.9678 16.3779 34.6943 16.0361C34.4255 15.6943 34.2227 15.3024 34.0859 14.8604C33.9538 14.4137 33.8877 13.9421 33.8877 13.4453V13.1582C33.8877 12.6615 33.9538 12.1921 34.0859 11.75C34.2227 11.3034 34.4255 10.9092 34.6943 10.5674C34.9678 10.2256 35.3096 9.95671 35.7197 9.76074C36.1344 9.56478 36.6198 9.4668 37.1758 9.4668C37.7546 9.4668 38.2604 9.58529 38.6934 9.82227C39.1263 10.0547 39.4658 10.3737 39.7119 10.7793C39.9626 11.1803 40.0993 11.6361 40.1221 12.1465H38.9189C38.8962 11.8411 38.8096 11.5654 38.6592 11.3193C38.5133 11.0732 38.3128 10.8773 38.0576 10.7314C37.807 10.5811 37.513 10.5059 37.1758 10.5059C36.7884 10.5059 36.4626 10.5833 36.1982 10.7383C35.9385 10.8887 35.7311 11.0938 35.5762 11.3535C35.4258 11.6087 35.3164 11.8936 35.248 12.208C35.1842 12.5179 35.1523 12.8346 35.1523 13.1582V13.4453C35.1523 13.7689 35.1842 14.0879 35.248 14.4023C35.3118 14.7168 35.4189 15.0016 35.5693 15.2568C35.7243 15.512 35.9316 15.7171 36.1914 15.8721C36.4557 16.0225 36.7839 16.0977 37.1758 16.0977ZM45.9053 15.7354V11.9277C45.9053 11.6361 45.846 11.3831 45.7275 11.1689C45.6136 10.9502 45.4404 10.7816 45.208 10.6631C44.9756 10.5446 44.6885 10.4854 44.3467 10.4854C44.0277 10.4854 43.7474 10.54 43.5059 10.6494C43.2689 10.7588 43.082 10.9023 42.9453 11.0801C42.8132 11.2578 42.7471 11.4492 42.7471 11.6543H41.4824C41.4824 11.39 41.5508 11.1279 41.6875 10.8682C41.8242 10.6084 42.0202 10.3737 42.2754 10.1641C42.5352 9.94987 42.8451 9.78125 43.2051 9.6582C43.5697 9.5306 43.9753 9.4668 44.4219 9.4668C44.9596 9.4668 45.4336 9.55794 45.8438 9.74023C46.2585 9.92253 46.582 10.1982 46.8145 10.5674C47.0514 10.932 47.1699 11.39 47.1699 11.9414V15.3867C47.1699 15.6328 47.1904 15.8949 47.2314 16.1729C47.277 16.4508 47.3431 16.6901 47.4297 16.8906V17H46.1104C46.0465 16.8542 45.9964 16.6605 45.96 16.4189C45.9235 16.1729 45.9053 15.945 45.9053 15.7354ZM46.124 12.5156L46.1377 13.4043H44.8594C44.4993 13.4043 44.1781 13.4339 43.8955 13.4932C43.613 13.5479 43.376 13.6322 43.1846 13.7461C42.9932 13.86 42.8473 14.0036 42.7471 14.1768C42.6468 14.3454 42.5967 14.5436 42.5967 14.7715C42.5967 15.0039 42.6491 15.2158 42.7539 15.4072C42.8587 15.5986 43.016 15.7513 43.2256 15.8652C43.4398 15.9746 43.7018 16.0293 44.0117 16.0293C44.3991 16.0293 44.7409 15.9473 45.0371 15.7832C45.3333 15.6191 45.568 15.4186 45.7412 15.1816C45.9189 14.9447 46.0146 14.7145 46.0283 14.4912L46.5684 15.0996C46.5365 15.291 46.4499 15.5029 46.3086 15.7354C46.1673 15.9678 45.9782 16.1911 45.7412 16.4053C45.5088 16.6149 45.2308 16.7904 44.9072 16.9316C44.5882 17.0684 44.2282 17.1367 43.8271 17.1367C43.3258 17.1367 42.8861 17.0387 42.5078 16.8428C42.1341 16.6468 41.8424 16.3848 41.6328 16.0566C41.4277 15.724 41.3252 15.3525 41.3252 14.9424C41.3252 14.5459 41.4027 14.1973 41.5576 13.8965C41.7126 13.5911 41.9359 13.3382 42.2275 13.1377C42.5192 12.9326 42.8701 12.7777 43.2803 12.6729C43.6904 12.568 44.1484 12.5156 44.6543 12.5156H46.124ZM50.5332 6.5V17H49.2617V6.5H50.5332Z" fill="#7F0000"/>
</svg>
