<svg width="54" height="22" viewBox="0 0 54 22" fill="none" xmlns="http://www.w3.org/2000/svg">
<rect width="54" height="22" rx="4" fill="#EC6D6D"/>
<path d="M14.1406 12.2871H15.2656C15.207 12.8262 15.0527 13.3086 14.8027 13.7344C14.5527 14.1602 14.1992 14.498 13.7422 14.748C13.2852 14.9941 12.7148 15.1172 12.0312 15.1172C11.5312 15.1172 11.0762 15.0234 10.666 14.8359C10.2598 14.6484 9.91016 14.3828 9.61719 14.0391C9.32422 13.6914 9.09766 13.2754 8.9375 12.791C8.78125 12.3027 8.70312 11.7598 8.70312 11.1621V10.3125C8.70312 9.71484 8.78125 9.17383 8.9375 8.68945C9.09766 8.20117 9.32617 7.7832 9.62305 7.43555C9.92383 7.08789 10.2852 6.82031 10.707 6.63281C11.1289 6.44531 11.6035 6.35156 12.1309 6.35156C12.7754 6.35156 13.3203 6.47266 13.7656 6.71484C14.2109 6.95703 14.5566 7.29297 14.8027 7.72266C15.0527 8.14844 15.207 8.64258 15.2656 9.20508H14.1406C14.0859 8.80664 13.9844 8.46484 13.8359 8.17969C13.6875 7.89062 13.4766 7.66797 13.2031 7.51172C12.9297 7.35547 12.5723 7.27734 12.1309 7.27734C11.752 7.27734 11.418 7.34961 11.1289 7.49414C10.8438 7.63867 10.6035 7.84375 10.4082 8.10938C10.2168 8.375 10.0723 8.69336 9.97461 9.06445C9.87695 9.43555 9.82812 9.84766 9.82812 10.3008V11.1621C9.82812 11.5801 9.87109 11.9727 9.95703 12.3398C10.0469 12.707 10.1816 13.0293 10.3613 13.3066C10.541 13.584 10.7695 13.8027 11.0469 13.9629C11.3242 14.1191 11.6523 14.1973 12.0312 14.1973C12.5117 14.1973 12.8945 14.1211 13.1797 13.9688C13.4648 13.8164 13.6797 13.5977 13.8242 13.3125C13.9727 13.0273 14.0781 12.6855 14.1406 12.2871ZM17.7266 9.65625V15H16.6426V8.66016H17.6973L17.7266 9.65625ZM19.707 8.625L19.7012 9.63281C19.6113 9.61328 19.5254 9.60156 19.4434 9.59766C19.3652 9.58984 19.2754 9.58594 19.1738 9.58594C18.9238 9.58594 18.7031 9.625 18.5117 9.70312C18.3203 9.78125 18.1582 9.89062 18.0254 10.0312C17.8926 10.1719 17.7871 10.3398 17.709 10.5352C17.6348 10.7266 17.5859 10.9375 17.5625 11.168L17.2578 11.3438C17.2578 10.9609 17.2949 10.6016 17.3691 10.2656C17.4473 9.92969 17.5664 9.63281 17.7266 9.375C17.8867 9.11328 18.0898 8.91016 18.3359 8.76562C18.5859 8.61719 18.8828 8.54297 19.2266 8.54297C19.3047 8.54297 19.3945 8.55273 19.4961 8.57227C19.5977 8.58789 19.668 8.60547 19.707 8.625ZM21.8867 8.66016V15H20.7969V8.66016H21.8867ZM20.7148 6.97852C20.7148 6.80273 20.7676 6.6543 20.873 6.5332C20.9824 6.41211 21.1426 6.35156 21.3535 6.35156C21.5605 6.35156 21.7188 6.41211 21.8281 6.5332C21.9414 6.6543 21.998 6.80273 21.998 6.97852C21.998 7.14648 21.9414 7.29102 21.8281 7.41211C21.7188 7.5293 21.5605 7.58789 21.3535 7.58789C21.1426 7.58789 20.9824 7.5293 20.873 7.41211C20.7676 7.29102 20.7148 7.14648 20.7148 6.97852ZM26.2812 8.66016V9.49219H22.8535V8.66016H26.2812ZM24.0137 7.11914H25.0977V13.4297C25.0977 13.6445 25.1309 13.8066 25.1973 13.916C25.2637 14.0254 25.3496 14.0977 25.4551 14.1328C25.5605 14.168 25.6738 14.1855 25.7949 14.1855C25.8848 14.1855 25.9785 14.1777 26.0762 14.1621C26.1777 14.1426 26.2539 14.127 26.3047 14.1152L26.3105 15C26.2246 15.0273 26.1113 15.0527 25.9707 15.0762C25.834 15.1035 25.668 15.1172 25.4727 15.1172C25.207 15.1172 24.9629 15.0645 24.7402 14.959C24.5176 14.8535 24.3398 14.6777 24.207 14.4316C24.0781 14.1816 24.0137 13.8457 24.0137 13.4238V7.11914ZM28.7305 8.66016V15H27.6406V8.66016H28.7305ZM27.5586 6.97852C27.5586 6.80273 27.6113 6.6543 27.7168 6.5332C27.8262 6.41211 27.9863 6.35156 28.1973 6.35156C28.4043 6.35156 28.5625 6.41211 28.6719 6.5332C28.7852 6.6543 28.8418 6.80273 28.8418 6.97852C28.8418 7.14648 28.7852 7.29102 28.6719 7.41211C28.5625 7.5293 28.4043 7.58789 28.1973 7.58789C27.9863 7.58789 27.8262 7.5293 27.7168 7.41211C27.6113 7.29102 27.5586 7.14648 27.5586 6.97852ZM33.0078 14.2266C33.2656 14.2266 33.5039 14.1738 33.7227 14.0684C33.9414 13.9629 34.1211 13.8184 34.2617 13.6348C34.4023 13.4473 34.4824 13.2344 34.502 12.9961H35.5332C35.5137 13.3711 35.3867 13.7207 35.1523 14.0449C34.9219 14.3652 34.6191 14.625 34.2441 14.8242C33.8691 15.0195 33.457 15.1172 33.0078 15.1172C32.5312 15.1172 32.1152 15.0332 31.7598 14.8652C31.4082 14.6973 31.1152 14.4668 30.8809 14.1738C30.6504 13.8809 30.4766 13.5449 30.3594 13.166C30.2461 12.7832 30.1895 12.3789 30.1895 11.9531V11.707C30.1895 11.2812 30.2461 10.8789 30.3594 10.5C30.4766 10.1172 30.6504 9.7793 30.8809 9.48633C31.1152 9.19336 31.4082 8.96289 31.7598 8.79492C32.1152 8.62695 32.5312 8.54297 33.0078 8.54297C33.5039 8.54297 33.9375 8.64453 34.3086 8.84766C34.6797 9.04688 34.9707 9.32031 35.1816 9.66797C35.3965 10.0117 35.5137 10.4023 35.5332 10.8398H34.502C34.4824 10.5781 34.4082 10.3418 34.2793 10.1309C34.1543 9.91992 33.9824 9.75195 33.7637 9.62695C33.5488 9.49805 33.2969 9.43359 33.0078 9.43359C32.6758 9.43359 32.3965 9.5 32.1699 9.63281C31.9473 9.76172 31.7695 9.9375 31.6367 10.1602C31.5078 10.3789 31.4141 10.623 31.3555 10.8926C31.3008 11.1582 31.2734 11.4297 31.2734 11.707V11.9531C31.2734 12.2305 31.3008 12.5039 31.3555 12.7734C31.4102 13.043 31.502 13.2871 31.6309 13.5059C31.7637 13.7246 31.9414 13.9004 32.1641 14.0332C32.3906 14.1621 32.6719 14.2266 33.0078 14.2266ZM40.4902 13.916V10.6523C40.4902 10.4023 40.4395 10.1855 40.3379 10.002C40.2402 9.81445 40.0918 9.66992 39.8926 9.56836C39.6934 9.4668 39.4473 9.41602 39.1543 9.41602C38.8809 9.41602 38.6406 9.46289 38.4336 9.55664C38.2305 9.65039 38.0703 9.77344 37.9531 9.92578C37.8398 10.0781 37.7832 10.2422 37.7832 10.418H36.6992C36.6992 10.1914 36.7578 9.9668 36.875 9.74414C36.9922 9.52148 37.1602 9.32031 37.3789 9.14062C37.6016 8.95703 37.8672 8.8125 38.1758 8.70703C38.4883 8.59766 38.8359 8.54297 39.2188 8.54297C39.6797 8.54297 40.0859 8.62109 40.4375 8.77734C40.793 8.93359 41.0703 9.16992 41.2695 9.48633C41.4727 9.79883 41.5742 10.1914 41.5742 10.6641V13.6172C41.5742 13.8281 41.5918 14.0527 41.627 14.291C41.666 14.5293 41.7227 14.7344 41.7969 14.9062V15H40.666C40.6113 14.875 40.5684 14.709 40.5371 14.502C40.5059 14.291 40.4902 14.0957 40.4902 13.916ZM40.6777 11.1562L40.6895 11.918H39.5938C39.2852 11.918 39.0098 11.9434 38.7676 11.9941C38.5254 12.041 38.3223 12.1133 38.1582 12.2109C37.9941 12.3086 37.8691 12.4316 37.7832 12.5801C37.6973 12.7246 37.6543 12.8945 37.6543 13.0898C37.6543 13.2891 37.6992 13.4707 37.7891 13.6348C37.8789 13.7988 38.0137 13.9297 38.1934 14.0273C38.377 14.1211 38.6016 14.168 38.8672 14.168C39.1992 14.168 39.4922 14.0977 39.7461 13.957C40 13.8164 40.2012 13.6445 40.3496 13.4414C40.502 13.2383 40.584 13.041 40.5957 12.8496L41.0586 13.3711C41.0312 13.5352 40.957 13.7168 40.8359 13.916C40.7148 14.1152 40.5527 14.3066 40.3496 14.4902C40.1504 14.6699 39.9121 14.8203 39.6348 14.9414C39.3613 15.0586 39.0527 15.1172 38.709 15.1172C38.2793 15.1172 37.9023 15.0332 37.5781 14.8652C37.2578 14.6973 37.0078 14.4727 36.8281 14.1914C36.6523 13.9062 36.5645 13.5879 36.5645 13.2363C36.5645 12.8965 36.6309 12.5977 36.7637 12.3398C36.8965 12.0781 37.0879 11.8613 37.3379 11.6895C37.5879 11.5137 37.8887 11.3809 38.2402 11.291C38.5918 11.2012 38.9844 11.1562 39.418 11.1562H40.6777ZM44.457 6V15H43.3672V6H44.457Z" fill="white"/>
</svg>
