<svg width="10" height="10" viewBox="0 0 10 10" fill="none" xmlns="http://www.w3.org/2000/svg">
<path fill-rule="evenodd" clip-rule="evenodd" d="M5 0C4.0111 0 3.0444 0.293245 2.22215 0.842652C1.3999 1.39206 0.759043 2.17295 0.380604 3.08658C0.00216642 4.00021 -0.0968502 5.00555 0.0960758 5.97545C0.289002 6.94535 0.765206 7.83627 1.46447 8.53553C2.16373 9.23479 3.05465 9.711 4.02455 9.90392C4.99445 10.0969 5.99979 9.99783 6.91342 9.6194C7.82705 9.24096 8.60794 8.60009 9.15735 7.77785C9.70676 6.9556 10 5.98891 10 5C9.99849 3.67438 9.47122 2.40349 8.53386 1.46614C7.59651 0.528782 6.32562 0.0015124 5 0ZM7.28472 3.74405C7.4195 3.5868 7.40129 3.35006 7.24405 3.21528C7.0868 3.0805 6.85006 3.09871 6.71528 3.25595L3.97882 6.44849L2.76517 5.23483C2.61872 5.08839 2.38128 5.08839 2.23483 5.23483C2.08839 5.38128 2.08839 5.61872 2.23483 5.76517L4.02118 7.55151L7.28472 3.74405Z" fill="#818D99"/>
</svg>
