<svg width="14" height="14" viewBox="0 0 14 14" fill="none" xmlns="http://www.w3.org/2000/svg">
<path d="M6.99388 0.922675C5.79202 0.923862 4.61749 1.28134 3.61876 1.94992C2.62003 2.6185 1.84193 3.56817 1.38282 4.67888C0.923708 5.78959 0.804199 7.01149 1.0394 8.19011C1.2746 9.36873 1.85394 10.4512 2.7042 11.3006C3.55447 12.15 4.63747 12.7283 5.81632 12.9623C6.99518 13.1964 8.21695 13.0756 9.32721 12.6154C10.4375 12.1552 11.3864 11.3762 12.054 10.3768C12.7216 9.37741 13.0779 8.20253 13.0779 7.00068C13.0783 6.20188 12.9211 5.41086 12.6154 4.67287C12.3098 3.93488 11.8615 3.26443 11.2964 2.69988C10.7313 2.13532 10.0604 1.68776 9.32214 1.38281C8.58385 1.07785 7.79267 0.921492 6.99388 0.922675ZM6.99988 11.8637C6.03807 11.8637 5.09786 11.5785 4.29814 11.0441C3.49842 10.5098 2.87512 9.75026 2.50705 8.86166C2.13898 7.97307 2.04268 6.99528 2.23032 6.05195C2.41796 5.10862 2.88111 4.24212 3.56122 3.56202C4.24132 2.88191 5.10782 2.41876 6.05115 2.23112C6.99448 2.04348 7.97227 2.13978 8.86087 2.50785C9.74946 2.87592 10.509 3.49922 11.0433 4.29894C11.5777 5.09865 11.8629 6.03886 11.8629 7.00068C11.8631 7.63937 11.7375 8.27185 11.4932 8.86198C11.2489 9.4521 10.8907 9.9883 10.4391 10.4399C9.9875 10.8915 9.4513 11.2497 8.86118 11.494C8.27105 11.7383 7.63857 11.8639 6.99988 11.8637ZM7.29988 3.96368H6.39188V7.60868L9.58388 9.52268L10.0399 8.77468L7.30388 7.15267L7.29988 3.96368Z" fill="#818D99"/>
</svg>
