<svg width="18" height="19" viewBox="0 0 18 19" fill="none" xmlns="http://www.w3.org/2000/svg">
<path d="M2 16.3125H3.425L13.2 6.5375L11.775 5.1125L2 14.8875V16.3125ZM0 18.3125V14.0625L13.2 0.8875C13.4 0.704167 13.6208 0.5625 13.8625 0.4625C14.1042 0.3625 14.3583 0.3125 14.625 0.3125C14.8917 0.3125 15.15 0.3625 15.4 0.4625C15.65 0.5625 15.8667 0.7125 16.05 0.9125L17.425 2.3125C17.625 2.49583 17.7708 2.7125 17.8625 2.9625C17.9542 3.2125 18 3.4625 18 3.7125C18 3.97917 17.9542 4.23333 17.8625 4.475C17.7708 4.71667 17.625 4.9375 17.425 5.1375L4.25 18.3125H0ZM12.475 5.8375L11.775 5.1125L13.2 6.5375L12.475 5.8375Z" fill="#818D99"/>
</svg>
