<svg width="24" height="25" viewBox="0 0 24 25" fill="none" xmlns="http://www.w3.org/2000/svg">
<path d="M24 12C24 5.37262 18.6274 0 12 0C5.37262 0 0 5.37262 0 12C0 17.9895 4.38825 22.954 10.125 23.8542V15.4688H7.07812V12H10.125V9.35625C10.125 6.34875 11.9166 4.6875 14.6576 4.6875C15.9705 4.6875 17.3438 4.92188 17.3438 4.92188V7.875H15.8306C14.3399 7.875 13.875 8.80003 13.875 9.74906V12H17.2031L16.6711 15.4688H13.875V23.8542C19.6117 22.954 24 17.9896 24 12Z" fill="#1877F2"/>
<path d="M16.593 15.7812L17.125 12.3125H13.7969V10.0616C13.7969 9.11244 14.2618 8.1875 15.7525 8.1875H17.2656V5.23438C17.2656 5.23438 15.8924 5 14.5794 5C11.8384 5 10.0469 6.66125 10.0469 9.66875V12.3125H7V15.7812H10.0469V24.1667C10.6671 24.2639 11.294 24.3126 11.9219 24.3125C12.5497 24.3126 13.1766 24.2639 13.7969 24.1667V15.7812H16.593Z" fill="white"/>
</svg>
