<svg width="14" height="15" viewBox="0 0 14 15" fill="none" xmlns="http://www.w3.org/2000/svg">
<path d="M8.58356 7.31152V13.5499C8.61523 13.7874 8.53606 14.0407 8.35398 14.2069C8.28074 14.2803 8.19374 14.3386 8.09797 14.3783C8.0022 14.418 7.89953 14.4385 7.79585 14.4385C7.69217 14.4385 7.5895 14.418 7.49373 14.3783C7.39796 14.3386 7.31097 14.2803 7.23773 14.2069L5.64648 12.6157C5.56018 12.5312 5.49456 12.428 5.45474 12.314C5.41492 12.2001 5.40196 12.0784 5.41689 11.9586V7.31152H5.39314L0.833143 1.46902C0.704582 1.30398 0.646573 1.09477 0.671791 0.887093C0.697009 0.679417 0.803403 0.490164 0.967726 0.36069C1.11814 0.249857 1.28439 0.186523 1.45856 0.186523H12.5419C12.7161 0.186523 12.8823 0.249857 13.0327 0.36069C13.197 0.490164 13.3034 0.679417 13.3287 0.887093C13.3539 1.09477 13.2959 1.30398 13.1673 1.46902L8.60731 7.31152H8.58356Z" fill="#272D32"/>
</svg>
