<svg width="24" height="23" viewBox="0 0 24 23" fill="none" xmlns="http://www.w3.org/2000/svg">
<path fill-rule="evenodd" clip-rule="evenodd" d="M23.931 10.2385C23.896 10.1595 23.049 8.2805 21.166 6.3975C18.657 3.8885 15.488 2.5625 12 2.5625C10.6087 2.5625 9.26815 2.77348 8 3.18635L8.92776 4.5686C9.90254 4.29832 10.9277 4.1625 12 4.1625C15.078 4.1625 17.767 5.2815 19.993 7.4875C20.9081 8.3955 21.6868 9.43125 22.305 10.5625C21.7829 11.5373 19.9915 14.4568 16.5958 15.9931L17.5 17.3402C18.8304 16.7066 20.0621 15.832 21.166 14.7285C23.049 12.8455 23.896 10.9675 23.931 10.8885C23.9765 10.7862 24 10.6755 24 10.5635C24 10.4515 23.9765 10.3408 23.931 10.2385ZM15.9911 13.2292C15.7895 13.531 15.5554 13.8072 15.2941 14.0537L14.3838 12.6974C14.908 12.1121 15.2 11.3523 15.2 10.5625C15.2 9.9296 15.0123 9.31091 14.6607 8.78468C14.3091 8.25844 13.8093 7.84829 13.2246 7.60609C12.6399 7.36388 11.9965 7.30051 11.3757 7.42399C11.2228 7.4544 11.073 7.49582 10.9273 7.54765L10.0169 6.1913C10.6371 5.90993 11.313 5.7625 12 5.7625C13.2726 5.76382 14.4928 6.26996 15.3927 7.16985C16.2925 8.06974 16.7987 9.28987 16.8 10.5625C16.8 11.5119 16.5185 12.4399 15.9911 13.2292Z" fill="#272D32"/>
<path fill-rule="evenodd" clip-rule="evenodd" d="M2.83399 6.3975C0.950991 8.2805 0.0999905 10.1625 0.0689905 10.2385C0.0235036 10.3408 0 10.4515 0 10.5635C0 10.6755 0.0235036 10.7862 0.0689905 10.8885C0.103991 10.9675 0.950991 12.8455 2.83399 14.7285C5.34299 17.2365 8.512 18.5625 12 18.5625C12.8385 18.5625 13.6585 18.4859 14.4554 18.3346L17 22.0625L18.5 21.0625L16.2977 17.8376L9.76516 8.2722L8.85366 6.9375L7.56372 5.04866L6.65208 3.71377L4.5 0.5625L3.00699 1.5625L5.06949 4.5841C4.2783 5.0953 3.5307 5.70079 2.83399 6.3975ZM12 16.9625C8.922 16.9625 6.233 15.8435 4.00699 13.6375C3.09367 12.7292 2.31662 11.6934 1.69999 10.5625C2.31638 9.43142 3.09346 8.39565 4.00699 7.4875C4.62556 6.87449 5.27988 6.34542 5.96837 5.90097L7.69758 8.4343C7.65039 8.5297 7.60629 8.62685 7.56537 8.72562C7.20207 9.60271 7.10702 10.5678 7.29223 11.4989C7.47744 12.43 7.93459 13.2853 8.60588 13.9566C9.27718 14.6279 10.1325 15.0851 11.0636 15.2703C11.5 15.3571 11.944 15.3823 12.3828 15.3472L12.4144 15.3446L13.4578 16.8732C12.992 16.9313 12.5062 16.9625 12 16.9625ZM9.04358 11.7871C9.28578 12.3718 9.69594 12.8716 10.2222 13.2232C10.5454 13.4392 10.9034 13.5933 11.2783 13.68L8.83377 10.0988C8.75023 10.6692 8.82221 11.2527 9.04358 11.7871Z" fill="#272D32"/>
</svg>
