<svg width="46" height="24" viewBox="0 0 46 24" fill="none" xmlns="http://www.w3.org/2000/svg">
<rect x="1.25" y="0.75" width="43.5" height="22.5" rx="3.25" fill="#FFFDF2"/>
<rect x="1.25" y="0.75" width="43.5" height="22.5" rx="3.25" stroke="#FAC300" stroke-width="1.5"/>
<path d="M16.1562 11.3262V12.3994H10.7695V11.3262H16.1562ZM10.9746 7.04688V17H9.65527V7.04688H10.9746ZM17.3047 7.04688V17H15.9922V7.04688H17.3047ZM20.832 9.60352V17H19.5605V9.60352H20.832ZM19.4648 7.6416C19.4648 7.43652 19.5264 7.26335 19.6494 7.12207C19.777 6.98079 19.9639 6.91016 20.21 6.91016C20.4515 6.91016 20.6361 6.98079 20.7637 7.12207C20.8958 7.26335 20.9619 7.43652 20.9619 7.6416C20.9619 7.83757 20.8958 8.00618 20.7637 8.14746C20.6361 8.28418 20.4515 8.35254 20.21 8.35254C19.9639 8.35254 19.777 8.28418 19.6494 8.14746C19.5264 8.00618 19.4648 7.83757 19.4648 7.6416ZM27.6543 9.60352H28.8027V16.8428C28.8027 17.4945 28.6706 18.0505 28.4062 18.5107C28.1419 18.971 27.7728 19.3197 27.2988 19.5566C26.8294 19.7982 26.2871 19.9189 25.6719 19.9189C25.4167 19.9189 25.1159 19.8779 24.7695 19.7959C24.4277 19.7184 24.0905 19.584 23.7578 19.3926C23.4297 19.2057 23.154 18.9528 22.9307 18.6338L23.5938 17.8818C23.9036 18.2555 24.2272 18.5153 24.5645 18.6611C24.9062 18.807 25.2435 18.8799 25.5762 18.8799C25.9772 18.8799 26.3236 18.8047 26.6152 18.6543C26.9069 18.5039 27.1325 18.2806 27.292 17.9844C27.4561 17.6927 27.5381 17.3327 27.5381 16.9043V11.2305L27.6543 9.60352ZM22.5615 13.3838V13.2402C22.5615 12.6751 22.6276 12.1624 22.7598 11.7021C22.8965 11.2373 23.0902 10.8385 23.3408 10.5059C23.596 10.1732 23.9036 9.91797 24.2637 9.74023C24.6237 9.55794 25.0293 9.4668 25.4805 9.4668C25.9453 9.4668 26.3509 9.54883 26.6973 9.71289C27.0482 9.8724 27.3444 10.1071 27.5859 10.417C27.832 10.7223 28.0257 11.0915 28.167 11.5244C28.3083 11.9574 28.4062 12.4473 28.4609 12.9941V13.623C28.4108 14.1654 28.3128 14.653 28.167 15.0859C28.0257 15.5189 27.832 15.888 27.5859 16.1934C27.3444 16.4987 27.0482 16.7334 26.6973 16.8975C26.3464 17.057 25.9362 17.1367 25.4668 17.1367C25.0247 17.1367 24.6237 17.0433 24.2637 16.8564C23.9082 16.6696 23.6029 16.4076 23.3477 16.0703C23.0924 15.7331 22.8965 15.3366 22.7598 14.8809C22.6276 14.4206 22.5615 13.9215 22.5615 13.3838ZM23.8262 13.2402V13.3838C23.8262 13.7529 23.8626 14.0993 23.9355 14.4229C24.013 14.7464 24.1292 15.0312 24.2842 15.2773C24.4437 15.5234 24.6465 15.7171 24.8926 15.8584C25.1387 15.9951 25.4326 16.0635 25.7744 16.0635C26.1937 16.0635 26.54 15.9746 26.8135 15.7969C27.0869 15.6191 27.3034 15.3844 27.4629 15.0928C27.627 14.8011 27.7546 14.4844 27.8457 14.1426V12.4951C27.7956 12.2445 27.7181 12.0029 27.6133 11.7705C27.513 11.5335 27.3809 11.3239 27.2168 11.1416C27.0573 10.9548 26.859 10.8066 26.6221 10.6973C26.3851 10.5879 26.1071 10.5332 25.7881 10.5332C25.4417 10.5332 25.1432 10.6061 24.8926 10.752C24.6465 10.8932 24.4437 11.0892 24.2842 11.3398C24.1292 11.5859 24.013 11.873 23.9355 12.2012C23.8626 12.5247 23.8262 12.8711 23.8262 13.2402ZM31.9883 6.5V17H30.7236V6.5H31.9883ZM31.6875 13.0215L31.1611 13.001C31.1657 12.4951 31.2409 12.028 31.3867 11.5996C31.5326 11.1667 31.7376 10.7907 32.002 10.4717C32.2663 10.1527 32.5807 9.90658 32.9453 9.7334C33.3145 9.55566 33.7223 9.4668 34.1689 9.4668C34.5335 9.4668 34.8617 9.51693 35.1533 9.61719C35.445 9.71289 35.6934 9.86784 35.8984 10.082C36.1081 10.2962 36.2676 10.5742 36.377 10.916C36.4863 11.2533 36.541 11.6657 36.541 12.1533V17H35.2695V12.1396C35.2695 11.7523 35.2126 11.4424 35.0986 11.21C34.9847 10.973 34.8184 10.8021 34.5996 10.6973C34.3809 10.5879 34.112 10.5332 33.793 10.5332C33.4785 10.5332 33.1914 10.5993 32.9316 10.7314C32.6764 10.8636 32.4554 11.0459 32.2686 11.2783C32.0863 11.5107 31.9427 11.7773 31.8379 12.0781C31.7376 12.3743 31.6875 12.6888 31.6875 13.0215Z" fill="#624D00"/>
</svg>
