<svg width="42" height="22" viewBox="0 0 42 22" fill="none" xmlns="http://www.w3.org/2000/svg">
<rect x="0.5" width="41" height="22" rx="4" fill="#FFE978"/>
<path d="M15.0625 10.1367V11.0566H10.4453V10.1367H15.0625ZM10.6211 6.46875V15H9.49023V6.46875H10.6211ZM16.0469 6.46875V15H14.9219V6.46875H16.0469ZM19.0703 8.66016V15H17.9805V8.66016H19.0703ZM17.8984 6.97852C17.8984 6.80273 17.9512 6.6543 18.0566 6.5332C18.166 6.41211 18.3262 6.35156 18.5371 6.35156C18.7441 6.35156 18.9023 6.41211 19.0117 6.5332C19.125 6.6543 19.1816 6.80273 19.1816 6.97852C19.1816 7.14648 19.125 7.29102 19.0117 7.41211C18.9023 7.5293 18.7441 7.58789 18.5371 7.58789C18.3262 7.58789 18.166 7.5293 18.0566 7.41211C17.9512 7.29102 17.8984 7.14648 17.8984 6.97852ZM24.918 8.66016H25.9023V14.8652C25.9023 15.4238 25.7891 15.9004 25.5625 16.2949C25.3359 16.6895 25.0195 16.9883 24.6133 17.1914C24.2109 17.3984 23.7461 17.502 23.2188 17.502C23 17.502 22.7422 17.4668 22.4453 17.3965C22.1523 17.3301 21.8633 17.2148 21.5781 17.0508C21.2969 16.8906 21.0605 16.6738 20.8691 16.4004L21.4375 15.7559C21.7031 16.0762 21.9805 16.2988 22.2695 16.4238C22.5625 16.5488 22.8516 16.6113 23.1367 16.6113C23.4805 16.6113 23.7773 16.5469 24.0273 16.418C24.2773 16.2891 24.4707 16.0977 24.6074 15.8438C24.748 15.5938 24.8184 15.2852 24.8184 14.918V10.0547L24.918 8.66016ZM20.5527 11.9004V11.7773C20.5527 11.293 20.6094 10.8535 20.7227 10.459C20.8398 10.0605 21.0059 9.71875 21.2207 9.43359C21.4395 9.14844 21.7031 8.92969 22.0117 8.77734C22.3203 8.62109 22.668 8.54297 23.0547 8.54297C23.4531 8.54297 23.8008 8.61328 24.0977 8.75391C24.3984 8.89062 24.6523 9.0918 24.8594 9.35742C25.0703 9.61914 25.2363 9.93555 25.3574 10.3066C25.4785 10.6777 25.5625 11.0977 25.6094 11.5664V12.1055C25.5664 12.5703 25.4824 12.9883 25.3574 13.3594C25.2363 13.7305 25.0703 14.0469 24.8594 14.3086C24.6523 14.5703 24.3984 14.7715 24.0977 14.9121C23.7969 15.0488 23.4453 15.1172 23.043 15.1172C22.6641 15.1172 22.3203 15.0371 22.0117 14.877C21.707 14.7168 21.4453 14.4922 21.2266 14.2031C21.0078 13.9141 20.8398 13.5742 20.7227 13.1836C20.6094 12.7891 20.5527 12.3613 20.5527 11.9004ZM21.6367 11.7773V11.9004C21.6367 12.2168 21.668 12.5137 21.7305 12.791C21.7969 13.0684 21.8965 13.3125 22.0293 13.5234C22.166 13.7344 22.3398 13.9004 22.5508 14.0215C22.7617 14.1387 23.0137 14.1973 23.3066 14.1973C23.666 14.1973 23.9629 14.1211 24.1973 13.9688C24.4316 13.8164 24.6172 13.6152 24.7539 13.3652C24.8945 13.1152 25.0039 12.8438 25.082 12.5508V11.1387C25.0391 10.9238 24.9727 10.7168 24.8828 10.5176C24.7969 10.3145 24.6836 10.1348 24.543 9.97852C24.4062 9.81836 24.2363 9.69141 24.0332 9.59766C23.8301 9.50391 23.5918 9.45703 23.3184 9.45703C23.0215 9.45703 22.7656 9.51953 22.5508 9.64453C22.3398 9.76562 22.166 9.93359 22.0293 10.1484C21.8965 10.3594 21.7969 10.6055 21.7305 10.8867C21.668 11.1641 21.6367 11.4609 21.6367 11.7773ZM28.6328 6V15H27.5488V6H28.6328ZM28.375 11.5898L27.9238 11.5723C27.9277 11.1387 27.9922 10.7383 28.1172 10.3711C28.2422 10 28.418 9.67773 28.6445 9.4043C28.8711 9.13086 29.1406 8.91992 29.4531 8.77148C29.7695 8.61914 30.1191 8.54297 30.502 8.54297C30.8145 8.54297 31.0957 8.58594 31.3457 8.67188C31.5957 8.75391 31.8086 8.88672 31.9844 9.07031C32.1641 9.25391 32.3008 9.49219 32.3945 9.78516C32.4883 10.0742 32.5352 10.4277 32.5352 10.8457V15H31.4453V10.834C31.4453 10.502 31.3965 10.2363 31.2988 10.0371C31.2012 9.83398 31.0586 9.6875 30.8711 9.59766C30.6836 9.50391 30.4531 9.45703 30.1797 9.45703C29.9102 9.45703 29.6641 9.51367 29.4414 9.62695C29.2227 9.74023 29.0332 9.89648 28.873 10.0957C28.7168 10.2949 28.5938 10.5234 28.5039 10.7812C28.418 11.0352 28.375 11.3047 28.375 11.5898Z" fill="#272D32"/>
</svg>
