<svg width="18" height="18" viewBox="0 0 18 18" fill="none" xmlns="http://www.w3.org/2000/svg">
<path d="M8.1665 13.1674H9.83317V8.16736H8.1665V13.1674ZM8.99984 6.50069C9.23595 6.50069 9.43387 6.42083 9.59359 6.26111C9.75331 6.10139 9.83317 5.90347 9.83317 5.66736C9.83317 5.43125 9.75331 5.23333 9.59359 5.07361C9.43387 4.91389 9.23595 4.83403 8.99984 4.83403C8.76373 4.83403 8.56581 4.91389 8.40609 5.07361C8.24637 5.23333 8.1665 5.43125 8.1665 5.66736C8.1665 5.90347 8.24637 6.10139 8.40609 6.26111C8.56581 6.42083 8.76373 6.50069 8.99984 6.50069ZM8.99984 17.334C7.84706 17.334 6.76373 17.1153 5.74984 16.6778C4.73595 16.2403 3.854 15.6465 3.104 14.8965C2.354 14.1465 1.76025 13.2646 1.32275 12.2507C0.885254 11.2368 0.666504 10.1535 0.666504 9.00069C0.666504 7.84791 0.885254 6.76458 1.32275 5.75069C1.76025 4.7368 2.354 3.85486 3.104 3.10486C3.854 2.35486 4.73595 1.76111 5.74984 1.32361C6.76373 0.886108 7.84706 0.667358 8.99984 0.667358C10.1526 0.667358 11.2359 0.886108 12.2498 1.32361C13.2637 1.76111 14.1457 2.35486 14.8957 3.10486C15.6457 3.85486 16.2394 4.7368 16.6769 5.75069C17.1144 6.76458 17.3332 7.84791 17.3332 9.00069C17.3332 10.1535 17.1144 11.2368 16.6769 12.2507C16.2394 13.2646 15.6457 14.1465 14.8957 14.8965C14.1457 15.6465 13.2637 16.2403 12.2498 16.6778C11.2359 17.1153 10.1526 17.334 8.99984 17.334ZM8.99984 15.6674C10.8609 15.6674 12.4373 15.0215 13.729 13.7299C15.0207 12.4382 15.6665 10.8618 15.6665 9.00069C15.6665 7.13958 15.0207 5.56319 13.729 4.27153C12.4373 2.97986 10.8609 2.33403 8.99984 2.33403C7.13873 2.33403 5.56234 2.97986 4.27067 4.27153C2.979 5.56319 2.33317 7.13958 2.33317 9.00069C2.33317 10.8618 2.979 12.4382 4.27067 13.7299C5.56234 15.0215 7.13873 15.6674 8.99984 15.6674Z" fill="#CA0061"/>
</svg>
