<svg width="44" height="24" viewBox="0 0 44 24" fill="none" xmlns="http://www.w3.org/2000/svg">
<rect x="1.25" y="0.75" width="41.5" height="22.5" rx="3.25" fill="#F9FFF7"/>
<rect x="1.25" y="0.75" width="41.5" height="22.5" rx="3.25" stroke="#2FBD00" stroke-width="1.5"/>
<path d="M15.6914 15.9268V17H10.7148V15.9268H15.6914ZM10.9746 7.04688V17H9.65527V7.04688H10.9746ZM16.6758 13.3838V13.2266C16.6758 12.6934 16.7533 12.1989 16.9082 11.7432C17.0632 11.2829 17.2865 10.8841 17.5781 10.5469C17.8698 10.2051 18.223 9.94076 18.6377 9.75391C19.0524 9.5625 19.5173 9.4668 20.0322 9.4668C20.5518 9.4668 21.0189 9.5625 21.4336 9.75391C21.8529 9.94076 22.2083 10.2051 22.5 10.5469C22.7962 10.8841 23.0218 11.2829 23.1768 11.7432C23.3317 12.1989 23.4092 12.6934 23.4092 13.2266V13.3838C23.4092 13.917 23.3317 14.4115 23.1768 14.8672C23.0218 15.3229 22.7962 15.7217 22.5 16.0635C22.2083 16.4007 21.8551 16.665 21.4404 16.8564C21.0303 17.0433 20.5654 17.1367 20.0459 17.1367C19.5264 17.1367 19.0592 17.0433 18.6445 16.8564C18.2298 16.665 17.8743 16.4007 17.5781 16.0635C17.2865 15.7217 17.0632 15.3229 16.9082 14.8672C16.7533 14.4115 16.6758 13.917 16.6758 13.3838ZM17.9404 13.2266V13.3838C17.9404 13.7529 17.9837 14.1016 18.0703 14.4297C18.1569 14.7533 18.2868 15.0404 18.46 15.291C18.6377 15.5417 18.8587 15.7399 19.123 15.8857C19.3874 16.027 19.695 16.0977 20.0459 16.0977C20.3923 16.0977 20.6953 16.027 20.9551 15.8857C21.2194 15.7399 21.4382 15.5417 21.6113 15.291C21.7845 15.0404 21.9144 14.7533 22.001 14.4297C22.0921 14.1016 22.1377 13.7529 22.1377 13.3838V13.2266C22.1377 12.862 22.0921 12.5179 22.001 12.1943C21.9144 11.8662 21.7822 11.5768 21.6045 11.3262C21.4313 11.071 21.2126 10.8704 20.9482 10.7246C20.6885 10.5788 20.3831 10.5059 20.0322 10.5059C19.6859 10.5059 19.3805 10.5788 19.1162 10.7246C18.8564 10.8704 18.6377 11.071 18.46 11.3262C18.2868 11.5768 18.1569 11.8662 18.0703 12.1943C17.9837 12.5179 17.9404 12.862 17.9404 13.2266ZM26.8682 15.6875L28.7686 9.60352H29.6025L29.4385 10.8135L27.5039 17H26.6904L26.8682 15.6875ZM25.5898 9.60352L27.21 15.7559L27.3262 17H26.4717L24.3252 9.60352H25.5898ZM31.4209 15.708L32.9658 9.60352H34.2236L32.0771 17H31.2295L31.4209 15.708ZM29.7871 9.60352L31.6465 15.585L31.8584 17H31.0518L29.0625 10.7998L28.8984 9.60352H29.7871Z" fill="#165700"/>
</svg>
