<svg width="40" height="22" viewBox="0 0 40 22" fill="none" xmlns="http://www.w3.org/2000/svg">
<rect x="0.5" width="39" height="22" rx="4" fill="#7EC866"/>
<path d="M14.6641 14.0801V15H10.3984V14.0801H14.6641ZM10.6211 6.46875V15H9.49023V6.46875H10.6211ZM15.5078 11.9004V11.7656C15.5078 11.3086 15.5742 10.8848 15.707 10.4941C15.8398 10.0996 16.0312 9.75781 16.2812 9.46875C16.5312 9.17578 16.834 8.94922 17.1895 8.78906C17.5449 8.625 17.9434 8.54297 18.3848 8.54297C18.8301 8.54297 19.2305 8.625 19.5859 8.78906C19.9453 8.94922 20.25 9.17578 20.5 9.46875C20.7539 9.75781 20.9473 10.0996 21.0801 10.4941C21.2129 10.8848 21.2793 11.3086 21.2793 11.7656V11.9004C21.2793 12.3574 21.2129 12.7812 21.0801 13.1719C20.9473 13.5625 20.7539 13.9043 20.5 14.1973C20.25 14.4863 19.9473 14.7129 19.5918 14.877C19.2402 15.0371 18.8418 15.1172 18.3965 15.1172C17.9512 15.1172 17.5508 15.0371 17.1953 14.877C16.8398 14.7129 16.5352 14.4863 16.2812 14.1973C16.0312 13.9043 15.8398 13.5625 15.707 13.1719C15.5742 12.7812 15.5078 12.3574 15.5078 11.9004ZM16.5918 11.7656V11.9004C16.5918 12.2168 16.6289 12.5156 16.7031 12.7969C16.7773 13.0742 16.8887 13.3203 17.0371 13.5352C17.1895 13.75 17.3789 13.9199 17.6055 14.0449C17.832 14.166 18.0957 14.2266 18.3965 14.2266C18.6934 14.2266 18.9531 14.166 19.1758 14.0449C19.4023 13.9199 19.5898 13.75 19.7383 13.5352C19.8867 13.3203 19.998 13.0742 20.0723 12.7969C20.1504 12.5156 20.1895 12.2168 20.1895 11.9004V11.7656C20.1895 11.4531 20.1504 11.1582 20.0723 10.8809C19.998 10.5996 19.8848 10.3516 19.7324 10.1367C19.584 9.91797 19.3965 9.74609 19.1699 9.62109C18.9473 9.49609 18.6855 9.43359 18.3848 9.43359C18.0879 9.43359 17.8262 9.49609 17.5996 9.62109C17.377 9.74609 17.1895 9.91797 17.0371 10.1367C16.8887 10.3516 16.7773 10.5996 16.7031 10.8809C16.6289 11.1582 16.5918 11.4531 16.5918 11.7656ZM24.2441 13.875L25.873 8.66016H26.5879L26.4473 9.69727L24.7891 15H24.0918L24.2441 13.875ZM23.1484 8.66016L24.5371 13.9336L24.6367 15H23.9043L22.0645 8.66016H23.1484ZM28.1465 13.8926L29.4707 8.66016H30.5488L28.709 15H27.9824L28.1465 13.8926ZM26.7461 8.66016L28.3398 13.7871L28.5215 15H27.8301L26.125 9.68555L25.9844 8.66016H26.7461Z" fill="white"/>
</svg>
