<svg width="14" height="4" viewBox="0 0 14 4" fill="none" xmlns="http://www.w3.org/2000/svg">
<path d="M2.00016 0.334C1.0835 0.334 0.333496 1.084 0.333496 2.00067C0.333496 2.91733 1.0835 3.66733 2.00016 3.66733C2.91683 3.66733 3.66683 2.91733 3.66683 2.00067C3.66683 1.084 2.91683 0.334 2.00016 0.334ZM12.0002 0.334C11.0835 0.334 10.3335 1.084 10.3335 2.00067C10.3335 2.91733 11.0835 3.66733 12.0002 3.66733C12.9168 3.66733 13.6668 2.91733 13.6668 2.00067C13.6668 1.084 12.9168 0.334 12.0002 0.334ZM7.00016 0.334C6.0835 0.334 5.3335 1.084 5.3335 2.00067C5.3335 2.91733 6.0835 3.66733 7.00016 3.66733C7.91683 3.66733 8.66683 2.91733 8.66683 2.00067C8.66683 1.084 7.91683 0.334 7.00016 0.334Z" fill="#272D32"/>
</svg>
