<svg width="20" height="21" viewBox="0 0 20 21" fill="none" xmlns="http://www.w3.org/2000/svg">
<path d="M1 7.3125V17.7125C1 18.2725 1 18.5525 1.109 18.7665C1.20487 18.9547 1.35785 19.1076 1.546 19.2035C1.76 19.3125 2.04 19.3125 2.598 19.3125H13M15 6.3125L11 10.3125L9 8.3125M5 12.1125V4.5125C5 3.3925 5 2.8325 5.218 2.4045C5.41 2.0275 5.715 1.7225 6.092 1.5305C6.52 1.3125 7.08 1.3125 8.2 1.3125H15.8C16.92 1.3125 17.48 1.3125 17.908 1.5305C18.2843 1.72224 18.5903 2.02819 18.782 2.4045C19 2.8325 19 3.3925 19 4.5125V12.1125C19 13.2325 19 13.7925 18.782 14.2205C18.5903 14.5968 18.2843 14.9028 17.908 15.0945C17.48 15.3125 16.922 15.3125 15.804 15.3125H8.197C7.079 15.3125 6.519 15.3125 6.092 15.0945C5.71569 14.9028 5.40974 14.5968 5.218 14.2205C5 13.7925 5 13.2325 5 12.1125Z" stroke="#818D99" stroke-width="2" stroke-linecap="round" stroke-linejoin="round"/>
</svg>
