<svg width="10" height="10" viewBox="0 0 10 10" fill="none" xmlns="http://www.w3.org/2000/svg">
<path fill-rule="evenodd" clip-rule="evenodd" d="M5 0C4.0111 0 3.0444 0.293245 2.22215 0.842652C1.3999 1.39206 0.759043 2.17295 0.380604 3.08658C0.00216641 4.00021 -0.0968502 5.00555 0.0960758 5.97545C0.289002 6.94535 0.765206 7.83627 1.46447 8.53553C2.16373 9.23479 3.05465 9.711 4.02455 9.90392C4.99445 10.0969 5.99979 9.99783 6.91342 9.6194C7.82705 9.24096 8.60794 8.60009 9.15735 7.77785C9.70676 6.9556 10 5.98891 10 5C9.99849 3.67438 9.47122 2.40349 8.53386 1.46614C7.59651 0.528782 6.32562 0.0015124 5 0ZM1.96954 8.03046C2.77327 8.83418 3.86335 9.28809 5 9.28809C6.13664 9.28809 7.22673 8.83656 8.03045 8.03284C8.83418 7.22911 9.28571 6.13902 9.28571 5.00238C9.28571 3.86574 8.83418 2.77565 8.03045 1.97192C7.22673 1.1682 6.13664 0.714286 5 0.714286C3.86336 0.714286 2.77327 1.16581 1.96954 1.96954C1.16582 2.77327 0.714288 3.86336 0.714288 5C0.714288 6.13664 1.16582 7.22673 1.96954 8.03046Z" fill="#027CEC"/>
</svg>
