<svg width="16" height="16" viewBox="0 0 16 16" fill="none" xmlns="http://www.w3.org/2000/svg">
<path fill-rule="evenodd" clip-rule="evenodd" d="M8 0C6.41775 0 4.87103 0.469192 3.55544 1.34824C2.23985 2.22729 1.21447 3.47672 0.608967 4.93853C0.00346625 6.40034 -0.15496 8.00887 0.153721 9.56072C0.462403 11.1126 1.22433 12.538 2.34315 13.6569C3.46197 14.7757 4.88743 15.5376 6.43928 15.8463C7.99113 16.155 9.59966 15.9965 11.0615 15.391C12.5233 14.7855 13.7727 13.7602 14.6518 12.4446C15.5308 11.129 16 9.58225 16 8C15.9976 5.87901 15.1539 3.84558 13.6542 2.34582C12.1544 0.846052 10.121 0.00241984 8 0ZM3.15127 12.8487C4.43723 14.1347 6.18137 14.861 8 14.861C9.81862 14.861 11.5628 14.1385 12.8487 12.8525C14.1347 11.5666 14.8571 9.82244 14.8571 8.00381C14.8571 6.18518 14.1347 4.44104 12.8487 3.15508C11.5628 1.86911 9.81863 1.14286 8 1.14286C6.18138 1.14286 4.43723 1.8653 3.15127 3.15127C1.86531 4.43723 1.14286 6.18137 1.14286 8C1.14286 9.81863 1.86531 11.5628 3.15127 12.8487Z" fill="#027CEC"/>
</svg>
