<svg width="42" height="43" viewBox="0 0 42 43" fill="none" xmlns="http://www.w3.org/2000/svg">
<g clip-path="url(#clip0_535_45267)">
<path d="M21 16.9791C18.24 16.9791 16 19.2191 16 21.9791C16 24.7391 18.24 26.9791 21 26.9791C23.76 26.9791 26 24.7391 26 21.9791C26 19.2191 23.76 16.9791 21 16.9791ZM21 11.9791C15.48 11.9791 11 16.4591 11 21.9791C11 27.4991 15.48 31.9791 21 31.9791C26.52 31.9791 31 27.4991 31 21.9791C31 16.4591 26.52 11.9791 21 11.9791ZM21 29.9791C16.58 29.9791 13 26.3991 13 21.9791C13 17.5591 16.58 13.9791 21 13.9791C25.42 13.9791 29 17.5591 29 21.9791C29 26.3991 25.42 29.9791 21 29.9791Z" fill="#027CEC"/>
</g>
<defs>
<clipPath id="clip0_535_45267">
<rect width="42" height="42" fill="white" transform="translate(0 0.979126)"/>
</clipPath>
</defs>
</svg>
