<svg width="24" height="17" viewBox="0 0 24 17" fill="none" xmlns="http://www.w3.org/2000/svg">
<path d="M23.931 7.9885C23.896 7.9095 23.049 6.0305 21.166 4.1475C18.657 1.6385 15.488 0.3125 12 0.3125C8.512 0.3125 5.34299 1.6385 2.83399 4.1475C0.950991 6.0305 0.0999905 7.9125 0.0689905 7.9885C0.0235036 8.09081 0 8.20153 0 8.3135C0 8.42547 0.0235036 8.53619 0.0689905 8.6385C0.103991 8.7175 0.950991 10.5955 2.83399 12.4785C5.34299 14.9865 8.512 16.3125 12 16.3125C15.488 16.3125 18.657 14.9865 21.166 12.4785C23.049 10.5955 23.896 8.7175 23.931 8.6385C23.9765 8.53619 24 8.42547 24 8.3135C24 8.20153 23.9765 8.09081 23.931 7.9885ZM12 14.7125C8.922 14.7125 6.233 13.5935 4.00699 11.3875C3.09367 10.4792 2.31662 9.44343 1.69999 8.3125C2.31638 7.18142 3.09346 6.14565 4.00699 5.2375C6.233 3.0315 8.922 1.9125 12 1.9125C15.078 1.9125 17.767 3.0315 19.993 5.2375C20.9081 6.1455 21.6868 7.18125 22.305 8.3125C21.584 9.6585 18.443 14.7125 12 14.7125ZM12 3.5125C11.0506 3.5125 10.1226 3.79402 9.33326 4.32145C8.5439 4.84888 7.92868 5.59853 7.56537 6.47562C7.20207 7.35271 7.10702 8.31782 7.29223 9.24893C7.47744 10.18 7.93459 11.0353 8.60588 11.7066C9.27718 12.3779 10.1325 12.8351 11.0636 13.0203C11.9947 13.2055 12.9598 13.1104 13.8369 12.7471C14.714 12.3838 15.4636 11.7686 15.9911 10.9792C16.5185 10.1899 16.8 9.26185 16.8 8.3125C16.7987 7.03987 16.2925 5.81974 15.3927 4.91985C14.4928 4.01996 13.2726 3.51382 12 3.5125ZM12 11.5125C11.3671 11.5125 10.7484 11.3248 10.2222 10.9732C9.69594 10.6216 9.28578 10.1218 9.04358 9.53709C8.80138 8.95236 8.73801 8.30895 8.86148 7.68821C8.98496 7.06747 9.28973 6.49729 9.73726 6.04976C10.1848 5.60223 10.755 5.29746 11.3757 5.17399C11.9965 5.05051 12.6399 5.11388 13.2246 5.35609C13.8093 5.59829 14.3091 6.00844 14.6607 6.53468C15.0123 7.06091 15.2 7.6796 15.2 8.3125C15.2 9.16119 14.8629 9.97513 14.2627 10.5752C13.6626 11.1754 12.8487 11.5125 12 11.5125Z" fill="#272D32"/>
</svg>
