<svg width="20" height="16" viewBox="0 0 20 16" fill="none" xmlns="http://www.w3.org/2000/svg">
<path d="M4.28794 0.293395L0.292936 4.29339L0.208936 4.38839C0.0598134 4.58092 -0.0139339 4.82124 0.00153159 5.06427C0.0169971 5.30729 0.120612 5.53633 0.292936 5.70839L0.387936 5.79139C0.580458 5.94052 0.820779 6.01426 1.06381 5.9988C1.30684 5.98333 1.53587 5.87972 1.70794 5.70739L3.99994 3.41039V15.0004L4.00694 15.1174C4.03537 15.3608 4.1522 15.5853 4.33526 15.7483C4.51832 15.9113 4.75485 16.0013 4.99994 16.0014L5.11694 15.9944C5.36036 15.9657 5.58477 15.8486 5.74755 15.6654C5.91034 15.4821 6.00015 15.2455 5.99994 15.0004V3.41739L8.29294 5.70739L8.38794 5.79139C8.58895 5.94871 8.84252 6.02321 9.09668 5.99961C9.35085 5.97602 9.58637 5.85612 9.75499 5.66449C9.92361 5.47285 10.0126 5.22399 10.0036 4.96889C9.9947 4.71379 9.88855 4.47176 9.70694 4.29239L5.70094 0.292394L5.60694 0.209394C5.41441 0.0602714 5.17409 -0.0134761 4.93107 0.00198934C4.68804 0.0174548 4.46 0.12107 4.28794 0.293395ZM14.9999 0.00339411L14.8829 0.0103946C14.6397 0.0390517 14.4154 0.155987 14.2527 0.339022C14.0899 0.522057 14 0.758461 13.9999 1.00339V12.5834L11.7069 10.2934L11.6119 10.2094C11.4108 10.0539 11.1581 9.98084 10.9051 10.005C10.652 10.0292 10.4177 10.1489 10.2497 10.3397C10.0817 10.5304 9.99272 10.778 10.0007 11.0321C10.0088 11.2861 10.1133 11.5276 10.2929 11.7074L14.2969 15.7074L14.3909 15.7914C14.5835 15.9405 14.8238 16.0143 15.0668 15.9988C15.3098 15.9833 15.5389 15.8797 15.7109 15.7074L19.7069 11.7074L19.7909 11.6124C19.9401 11.4199 20.0138 11.1796 19.9983 10.9365C19.9829 10.6935 19.8793 10.4645 19.7069 10.2924L19.6119 10.2094C19.4194 10.0603 19.1791 9.98652 18.9361 10.002C18.693 10.0175 18.464 10.1211 18.2919 10.2934L15.9999 12.5874V1.00339L15.9929 0.887394C15.9645 0.643962 15.8477 0.419447 15.6646 0.256483C15.4816 0.0935191 15.245 0.00345519 14.9999 0.00339411Z" fill="#818D99"/>
</svg>
