<?xml version="1.0" encoding="UTF-8"?>
<!DOCTYPE svg PUBLIC "-//W3C//DTD SVG 1.1//EN" "http://www.w3.org/Graphics/SVG/1.1/DTD/svg11.dtd">
<svg xmlns="http://www.w3.org/2000/svg" version="1.1" width="338px" height="131px" style="shape-rendering:geometricPrecision; text-rendering:geometricPrecision; image-rendering:optimizeQuality; fill-rule:evenodd; clip-rule:evenodd" xmlns:xlink="http://www.w3.org/1999/xlink">
<g><path style="opacity:0.999" fill="#fefefe" d="M 23.5,7.5 C 33.4651,16.9645 43.2984,26.6311 53,36.5C 53.6667,45.1667 53.6667,53.8333 53,62.5C 46.3333,55.8333 39.6667,49.1667 33,42.5C 32.5001,59.1633 32.3334,75.83 32.5,92.5C 29.5,92.5 26.5,92.5 23.5,92.5C 23.5,64.1667 23.5,35.8333 23.5,7.5 Z"/></g>
<g><path style="opacity:0.998" fill="#fefefe" d="M 337.5,79.5 C 337.5,79.8333 337.5,80.1667 337.5,80.5C 334.482,80.6646 331.482,80.498 328.5,80C 324,74.1667 319.5,68.3333 315,62.5C 314.501,68.4908 314.334,74.4908 314.5,80.5C 312.167,80.5 309.833,80.5 307.5,80.5C 307.5,64.1667 307.5,47.8333 307.5,31.5C 309.833,31.5 312.167,31.5 314.5,31.5C 314.334,41.1724 314.5,50.8391 315,60.5C 318.833,56 322.667,51.5 326.5,47C 329.227,46.1816 331.894,46.3483 334.5,47.5C 330.833,52.1667 327.167,56.8333 323.5,61.5C 327.839,67.829 332.506,73.829 337.5,79.5 Z"/></g>
<g><path style="opacity:0.997" fill="#fefefe" d="M 103.5,34.5 C 106.685,34.0196 109.519,34.6863 112,36.5C 118.611,46.7765 125.611,56.7765 133,66.5C 133.5,55.8385 133.667,45.1719 133.5,34.5C 135.833,34.5 138.167,34.5 140.5,34.5C 140.5,49.8333 140.5,65.1667 140.5,80.5C 138.076,80.8076 135.743,80.4742 133.5,79.5C 125.805,68.9718 118.305,58.3051 111,47.5C 110.5,58.495 110.333,69.495 110.5,80.5C 108.167,80.5 105.833,80.5 103.5,80.5C 103.5,65.1667 103.5,49.8333 103.5,34.5 Z"/></g>
<g><path style="opacity:0.999" fill="#fefefe" d="M 210.5,34.5 C 222.167,34.5 233.833,34.5 245.5,34.5C 245.5,36.5 245.5,38.5 245.5,40.5C 240.833,40.5 236.167,40.5 231.5,40.5C 231.5,53.8333 231.5,67.1667 231.5,80.5C 229.167,80.5 226.833,80.5 224.5,80.5C 224.5,67.1667 224.5,53.8333 224.5,40.5C 219.833,40.5 215.167,40.5 210.5,40.5C 210.5,38.5 210.5,36.5 210.5,34.5 Z"/></g>
<g><path style="opacity:0.999" fill="#fefefe" d="M 65.5,37.5 C 68.5,37.5 71.5,37.5 74.5,37.5C 74.6666,65.8353 74.5,94.1686 74,122.5C 64.3333,112.833 54.6667,103.167 45,93.5C 44.3333,84.8333 44.3333,76.1667 45,67.5C 51.6667,74.1667 58.3333,80.8333 65,87.5C 65.4999,70.8367 65.6666,54.17 65.5,37.5 Z"/></g>
<g><path style="opacity:0.999" fill="#fdfdfd" d="M 154.5,46.5 C 158.846,46.3343 163.179,46.501 167.5,47C 172.568,48.6283 175.068,52.1283 175,57.5C 175.5,65.1594 175.666,72.8261 175.5,80.5C 172.348,80.9529 169.848,79.9529 168,77.5C 161.638,82.6276 155.305,82.6276 149,77.5C 144.999,68.708 147.499,62.8747 156.5,60C 160.5,59.6667 164.5,59.3333 168.5,59C 167.896,56.5325 166.562,54.5325 164.5,53C 160.217,52.3733 156.051,52.8733 152,54.5C 149.614,52.9542 149.114,50.9542 150.5,48.5C 152.026,48.0057 153.359,47.339 154.5,46.5 Z M 162.5,64.5 C 164.5,64.5 166.5,64.5 168.5,64.5C 168.259,73.1344 163.925,76.1344 155.5,73.5C 153.948,70.4326 154.615,67.9326 157.5,66C 159.382,65.8019 161.048,65.3019 162.5,64.5 Z"/></g>
<g><path style="opacity:0.999" fill="#fdfdfd" d="M 178.5,46.5 C 181.167,46.5 183.833,46.5 186.5,46.5C 189.029,54.9208 191.863,63.2541 195,71.5C 197.555,63.393 200.388,55.393 203.5,47.5C 205.743,46.5258 208.076,46.1924 210.5,46.5C 206.833,57.8333 203.167,69.1667 199.5,80.5C 196.428,80.8174 193.428,80.4841 190.5,79.5C 186.208,68.5872 182.208,57.5872 178.5,46.5 Z"/></g>
<g><path style="opacity:0.999" fill="#fdfdfd" d="M 251.5,46.5 C 255.846,46.3343 260.179,46.501 264.5,47C 266.624,48.1217 268.457,49.6217 270,51.5C 271.448,61.0607 271.948,70.7274 271.5,80.5C 268.453,81.1446 266.287,80.1446 265,77.5C 258.049,83.0739 251.382,82.7406 245,76.5C 241.948,67.9983 244.781,62.4983 253.5,60C 257.152,59.5014 260.818,59.3347 264.5,59.5C 264.919,56.6755 263.919,54.5088 261.5,53C 256.712,52.5185 252.045,52.8518 247.5,54C 246.74,52.5589 246.074,51.0589 245.5,49.5C 247.594,48.4824 249.594,47.4824 251.5,46.5 Z M 258.5,64.5 C 260.5,64.5 262.5,64.5 264.5,64.5C 265.046,72.9798 261.046,76.1465 252.5,74C 249.833,71.6667 249.833,69.3333 252.5,67C 254.611,66.1553 256.611,65.322 258.5,64.5 Z"/></g>
<g><path style="opacity:0.999" fill="#fdfdfd" d="M 284.5,46.5 C 289.88,46.3243 295.213,46.6576 300.5,47.5C 300.357,50.0974 299.523,52.4308 298,54.5C 294.317,52.4262 290.484,52.0928 286.5,53.5C 285.253,55.0064 285.253,56.5064 286.5,58C 291.767,59.1934 296.267,61.6934 300,65.5C 302.83,75.4837 298.997,80.817 288.5,81.5C 285.148,80.774 281.815,79.9407 278.5,79C 277.027,76.3921 277.527,74.2254 280,72.5C 284.022,74.2736 288.188,74.7736 292.5,74C 294.922,71.888 294.922,69.888 292.5,68C 287.105,66.891 282.605,64.391 279,60.5C 277.018,54.083 278.851,49.4163 284.5,46.5 Z"/></g>
<g><path style="opacity:0.997" fill="#fdfdfd" d="M 210.5,103.5 C 207.162,103.935 204.162,103.268 201.5,101.5C 198.617,104.09 195.617,104.09 192.5,101.5C 192.5,99.8333 192.5,98.1667 192.5,96.5C 195.491,92.5111 198.658,92.5111 202,96.5C 203.174,94.3291 205.007,93.3291 207.5,93.5C 207.5,92.1667 207.5,90.8333 207.5,89.5C 208.5,89.5 209.5,89.5 210.5,89.5C 210.5,94.1667 210.5,98.8333 210.5,103.5 Z M 204.5,96.5 C 205.5,96.5 206.5,96.5 207.5,96.5C 206.5,103.167 205.5,103.167 204.5,96.5 Z M 201.5,101.5 C 199.388,101.398 197.388,100.898 195.5,100C 196.5,99.8333 197.5,99.6667 198.5,99.5C 200.03,99.6399 201.03,100.307 201.5,101.5 Z"/></g>
<g><path style="opacity:0.998" fill="#fdfdfd" d="M 106.5,93.5 C 99.8286,93.219 99.8286,94.219 106.5,96.5C 108.06,102.436 105.727,104.603 99.5,103C 99.0426,102.586 98.7093,102.086 98.5,101.5C 100.006,100.253 101.506,100.253 103,101.5C 103.692,100.975 104.192,100.308 104.5,99.5C 101.895,98.5279 99.895,96.8612 98.5,94.5C 99.8879,90.906 102.555,89.5727 106.5,90.5C 106.5,91.5 106.5,92.5 106.5,93.5 Z"/></g>
<g><path style="opacity:0.997" fill="#fdfdfd" d="M 137.5,90.5 C 146.497,90.4864 148.83,94.4864 144.5,102.5C 136.697,104.532 133.53,101.532 135,93.5C 136.045,92.6266 136.878,91.6266 137.5,90.5 Z M 139.5,92.5 C 142.05,92.8844 143.383,94.3844 143.5,97C 141.5,103 139.5,103 137.5,97C 137.519,95.167 138.185,93.667 139.5,92.5 Z"/></g>
<g><path style="opacity:0.997" fill="#fdfdfd" d="M 192.5,96.5 C 191.067,97.8333 189.733,99.3333 188.5,101C 189.793,101.49 191.127,101.657 192.5,101.5C 189.316,103.414 185.649,104.08 181.5,103.5C 181.5,99.1667 181.5,94.8333 181.5,90.5C 182.5,90.5 183.5,90.5 184.5,90.5C 184.335,94.1817 184.501,97.8484 185,101.5C 186.046,99.9095 187.213,98.4095 188.5,97C 187.552,96.5172 186.552,96.3505 185.5,96.5C 185.5,95.5 185.5,94.5 185.5,93.5C 187.833,93.5 190.167,93.5 192.5,93.5C 192.5,94.5 192.5,95.5 192.5,96.5 Z"/></g>
<g><path style="opacity:0.997" fill="#fdfdfd" d="M 221.5,90.5 C 223.792,90.2436 225.959,90.5769 228,91.5C 228.591,92.4835 228.257,93.1501 227,93.5C 222.302,92.5447 220.636,94.5447 222,99.5C 225.288,102.121 227.121,101.121 227.5,96.5C 228.474,98.7427 228.808,101.076 228.5,103.5C 218.12,103.543 215.787,99.2099 221.5,90.5 Z"/></g>
<g><path style="opacity:0.989" fill="#fdfdfd" d="M 250.5,90.5 C 251.675,90.281 252.675,90.6143 253.5,91.5C 255.564,100.537 257.23,100.204 258.5,90.5C 259.822,90.33 260.989,90.6634 262,91.5C 262.333,94.1667 262.667,96.8333 263,99.5C 263.858,94.324 266.692,92.6573 271.5,94.5C 272.987,99.6572 273.653,99.3239 273.5,93.5C 276.079,93.0833 278.246,93.75 280,95.5C 285.186,91.9626 287.686,93.296 287.5,99.5C 286.022,99.238 284.689,99.5713 283.5,100.5C 284.391,101.59 285.391,101.59 286.5,100.5C 287.711,101.274 287.711,102.107 286.5,103C 281.165,104.167 278.831,102 279.5,96.5C 278.5,96.5 277.5,96.5 276.5,96.5C 276.5,98.8333 276.5,101.167 276.5,103.5C 275.5,103.5 274.5,103.5 273.5,103.5C 273.549,98.4612 272.882,98.2945 271.5,103C 268.166,104.212 265.666,103.379 264,100.5C 263.517,101.448 263.351,102.448 263.5,103.5C 262.5,103.5 261.5,103.5 260.5,103.5C 260.92,94.8521 259.92,94.5188 257.5,102.5C 256.675,103.386 255.675,103.719 254.5,103.5C 252.523,95.8234 251.523,95.8234 251.5,103.5C 250.5,103.5 249.5,103.5 248.5,103.5C 249.086,99.1456 249.752,94.8122 250.5,90.5 Z M 266.5,96.5 C 270.161,96.3501 271.161,97.8501 269.5,101C 268.551,101.617 267.718,101.451 267,100.5C 266.51,99.2068 266.343,97.8734 266.5,96.5 Z"/></g>
<g><path style="opacity:0.997" fill="#fdfdfd" d="M 292.5,90.5 C 295.579,90.2601 298.579,90.5934 301.5,91.5C 302.806,92.9122 303.64,94.5789 304,96.5C 305.481,93.9201 307.648,93.0868 310.5,94C 314.057,96.5808 314.39,99.5808 311.5,103C 308.107,104.168 305.441,103.334 303.5,100.5C 300.387,103.192 296.721,104.192 292.5,103.5C 292.5,99.1667 292.5,94.8333 292.5,90.5 Z M 295.5,92.5 C 300.012,92.8689 301.512,95.2022 300,99.5C 298.915,100.293 297.748,100.96 296.5,101.5C 295.516,98.5719 295.183,95.5719 295.5,92.5 Z M 307.5,96.5 C 308.5,96.5 309.5,96.5 310.5,96.5C 310.884,98.6648 310.217,100.332 308.5,101.5C 306.296,100.218 305.962,98.5514 307.5,96.5 Z"/></g>
<g><path style="opacity:0.996" fill="#fdfdfd" d="M 332.5,90.5 C 333.5,90.5 334.5,90.5 335.5,90.5C 335.058,94.9359 335.058,99.2693 335.5,103.5C 334.5,103.5 333.5,103.5 332.5,103.5C 332.5,99.1667 332.5,94.8333 332.5,90.5 Z"/></g>
<g><path style="opacity:0.998" fill="#fdfdfd" d="M 121.5,94.5 C 121.5,97.5 121.5,100.5 121.5,103.5C 117.331,103.148 113.331,102.982 109.5,103C 109.141,100.37 108.141,98.2029 106.5,96.5C 106.5,95.5 106.5,94.5 106.5,93.5C 107.756,93.0962 108.923,92.4295 110,91.5C 113.968,93.3529 114.468,95.8529 111.5,99C 111.667,99.8333 111.833,100.667 112,101.5C 113.358,98.2122 115.858,96.7122 119.5,97C 117.744,96.7978 116.078,96.2978 114.5,95.5C 116.484,93.2395 118.817,92.9061 121.5,94.5 Z M 116.5,99.5 C 119.797,99.3287 120.131,99.9954 117.5,101.5C 116.702,101.043 116.369,100.376 116.5,99.5 Z"/></g>
<g><path style="opacity:0.996" fill="#fdfdfd" d="M 239.5,91.5 C 241.011,92.5025 242.678,93.1692 244.5,93.5C 244.5,94.5 244.5,95.5 244.5,96.5C 243.5,96.5 242.5,96.5 241.5,96.5C 241.343,97.8734 241.51,99.2068 242,100.5C 242.667,101.833 243.333,101.833 244,100.5C 244.483,101.448 244.649,102.448 244.5,103.5C 242.856,103.714 241.356,103.38 240,102.5C 239.667,100.5 239.333,98.5 239,96.5C 238.517,97.448 238.351,98.448 238.5,99.5C 236.473,99.3379 234.473,99.5045 232.5,100C 233.649,101.744 234.983,101.911 236.5,100.5C 237.386,101.325 237.719,102.325 237.5,103.5C 229.514,104.002 227.514,100.835 231.5,94C 233.441,93.2571 235.274,93.4238 237,94.5C 238.417,93.9221 239.25,92.9221 239.5,91.5 Z"/></g>
<g><path style="opacity:0.997" fill="#fdfdfd" d="M 121.5,94.5 C 122.386,93.2241 123.386,93.2241 124.5,94.5C 125.728,99.5217 127.061,99.355 128.5,94C 129.6,93.5683 130.267,94.0683 130.5,95.5C 129.324,99.8901 127.49,103.89 125,107.5C 123.521,106.127 123.688,104.627 125.5,103C 124.052,100.124 122.719,97.2908 121.5,94.5 Z"/></g>
<g><path style="opacity:0.997" fill="#fdfdfd" d="M 147.5,93.5 C 151.969,94.6391 156.636,94.6391 161.5,93.5C 161.666,97.5138 161.499,101.514 161,105.5C 158.925,107.648 156.592,107.982 154,106.5C 154.081,104.362 155.081,104.029 157,105.5C 157.5,105 158,104.5 158.5,104C 154.268,103.423 151.934,100.923 151.5,96.5C 150.526,98.7427 150.192,101.076 150.5,103.5C 149.5,103.5 148.5,103.5 147.5,103.5C 147.5,100.167 147.5,96.8333 147.5,93.5 Z M 156.5,96.5 C 157.5,96.5 158.5,96.5 159.5,96.5C 159.716,98.6807 158.883,100.347 157,101.5C 155.212,99.9769 155.045,98.3102 156.5,96.5 Z"/></g>
<g><path style="opacity:0.997" fill="#fdfdfd" d="M 164.5,93.5 C 166.262,93.3573 167.929,93.6906 169.5,94.5C 170.484,97.4281 170.817,100.428 170.5,103.5C 167.881,103.768 165.381,103.435 163,102.5C 161.863,98.63 163.363,96.7967 167.5,97C 166.062,96.7811 164.729,96.2811 163.5,95.5C 163.863,94.8165 164.196,94.1499 164.5,93.5 Z M 165.5,99.5 C 169.243,99.4592 169.41,100.126 166,101.5C 165.536,100.906 165.369,100.239 165.5,99.5 Z"/></g>
<g><path style="opacity:0.997" fill="#fdfdfd" d="M 171.5,93.5 C 179.336,92.3398 182.336,95.6732 180.5,103.5C 179.5,103.5 178.5,103.5 177.5,103.5C 177.5,101.167 177.5,98.8333 177.5,96.5C 176.5,96.5 175.5,96.5 174.5,96.5C 174.5,98.8333 174.5,101.167 174.5,103.5C 173.5,103.5 172.5,103.5 171.5,103.5C 171.5,100.167 171.5,96.8333 171.5,93.5 Z"/></g>
<g><path style="opacity:0.996" fill="#fdfdfd" d="M 314.5,93.5 C 317.119,93.2317 319.619,93.565 322,94.5C 322.498,97.4816 322.665,100.482 322.5,103.5C 321.5,103.5 320.5,103.5 319.5,103.5C 319.5,101.167 319.5,98.8333 319.5,96.5C 318.5,96.5 317.5,96.5 316.5,96.5C 316.808,98.924 316.474,101.257 315.5,103.5C 314.513,100.232 314.18,96.8984 314.5,93.5 Z"/></g>
<g><path style="opacity:0.996" fill="#fdfdfd" d="M 325.5,93.5 C 330.168,92.8394 332.168,94.8394 331.5,99.5C 329.801,99.3398 328.134,99.5065 326.5,100C 327.649,101.744 328.983,101.911 330.5,100.5C 331.711,101.274 331.711,102.107 330.5,103C 326.452,104.414 324.119,103.081 323.5,99C 323.395,96.8218 324.061,94.9885 325.5,93.5 Z"/></g>
<g><path style="opacity:0.995" fill="#fdfdfd" d="M 210.5,103.5 C 211.404,102.791 211.737,101.791 211.5,100.5C 212.675,100.281 213.675,100.614 214.5,101.5C 213.754,102.736 213.421,104.07 213.5,105.5C 211.821,105.715 210.821,105.048 210.5,103.5 Z"/></g>
</svg>
