<svg width="102" height="64" viewBox="0 0 102 64" fill="none" xmlns="http://www.w3.org/2000/svg">
<path fill-rule="evenodd" clip-rule="evenodd" d="M0.0290728 42.0799H3.25615V22.9106L11.164 30.893V21.7453L0 10.5L0.0290728 42.0799Z" fill="url(#paint0_linear_505_32688)"/>
<path fill-rule="evenodd" clip-rule="evenodd" d="M18.9845 21.9201H15.7575V41.0894L7.84965 33.107V42.2547L19.0136 53.5L18.9845 21.9201Z" fill="url(#paint1_linear_505_32688)"/>
<path d="M32.8926 31.3633C32.2806 30.4844 31.5482 29.3223 30.6953 27.877V39H28.8691V24.8398H30.4902L35.7344 32.2812C36.2552 33.0169 37.0365 34.2311 38.0781 35.9238V24.8398H39.8945V39H38.2734L32.8926 31.3633ZM46.6074 28.5605C47.89 28.5605 48.8763 28.8991 49.5664 29.5762C50.263 30.2467 50.6113 31.207 50.6113 32.457V39H49.166L48.8926 37.7988C47.89 38.7298 46.7637 39.1953 45.5137 39.1953C44.485 39.1953 43.668 38.9186 43.0625 38.3652C42.457 37.8118 42.1543 37.0697 42.1543 36.1387C42.1543 35.0579 42.597 34.2148 43.4824 33.6094C44.3678 33.0039 45.6113 32.7012 47.2129 32.7012H48.7266V32.418C48.6745 30.9531 47.9225 30.2207 46.4707 30.2207C46.028 30.2207 45.5299 30.2891 44.9766 30.4258C44.4232 30.556 43.8665 30.735 43.3066 30.9629L42.7891 29.4395C43.388 29.1595 44.0195 28.9447 44.6836 28.7949C45.3542 28.6387 45.9954 28.5605 46.6074 28.5605ZM47.3301 34.1367C46.2884 34.1367 45.4779 34.3092 44.8984 34.6543C44.319 34.9928 44.0293 35.4681 44.0293 36.0801C44.0293 36.5488 44.1888 36.9102 44.5078 37.1641C44.8268 37.4115 45.2728 37.5352 45.8457 37.5352C46.3926 37.5352 46.9264 37.4212 47.4473 37.1934C47.9681 36.959 48.3945 36.6465 48.7266 36.2559V34.1367H47.3301ZM51.9238 28.7168H53.9062L55.8691 34.1953C55.9733 34.4883 56.084 34.8333 56.2012 35.2305C56.3249 35.6211 56.4193 35.9108 56.4844 36.0996C56.4844 36.0736 56.5918 36.4121 56.8066 37.1152L57.1289 36.0996C57.4609 35.0579 57.666 34.4232 57.7441 34.1953L59.707 28.7168H61.6113L57.9492 39H55.5859L51.9238 28.7168ZM72.1816 26.5391H68.041V39H66.1172V26.5391H61.7324V24.8398H72.1816V26.5391ZM76.3262 28.5605C77.6087 28.5605 78.5951 28.8991 79.2852 29.5762C79.9818 30.2467 80.3301 31.207 80.3301 32.457V39H78.8848L78.6113 37.7988C77.6087 38.7298 76.4824 39.1953 75.2324 39.1953C74.2038 39.1953 73.3867 38.9186 72.7812 38.3652C72.1758 37.8118 71.873 37.0697 71.873 36.1387C71.873 35.0579 72.3158 34.2148 73.2012 33.6094C74.0866 33.0039 75.3301 32.7012 76.9316 32.7012H78.4453V32.418C78.3932 30.9531 77.6413 30.2207 76.1895 30.2207C75.7467 30.2207 75.2487 30.2891 74.6953 30.4258C74.1419 30.556 73.5853 30.735 73.0254 30.9629L72.5078 29.4395C73.1068 29.1595 73.7383 28.9447 74.4023 28.7949C75.0729 28.6387 75.7142 28.5605 76.3262 28.5605ZM77.0488 34.1367C76.0072 34.1367 75.1966 34.3092 74.6172 34.6543C74.0378 34.9928 73.748 35.4681 73.748 36.0801C73.748 36.5488 73.9076 36.9102 74.2266 37.1641C74.5456 37.4115 74.9915 37.5352 75.5645 37.5352C76.1113 37.5352 76.6452 37.4212 77.166 37.1934C77.6868 36.959 78.1133 36.6465 78.4453 36.2559V34.1367H77.0488ZM86.2031 28.541C87.043 28.5345 88.0163 28.7526 89.123 29.1953L88.625 30.7578C87.6484 30.3737 86.8411 30.1816 86.2031 30.1816C85.6172 30.1816 85.1549 30.2956 84.8164 30.5234C84.4779 30.7448 84.3086 31.0508 84.3086 31.4414C84.3086 31.8125 84.4583 32.0957 84.7578 32.291C85.0573 32.4863 85.5065 32.6751 86.1055 32.8574C86.8151 33.0853 87.3783 33.2969 87.7949 33.4922C88.2181 33.681 88.5859 33.987 88.8984 34.4102C89.2109 34.8268 89.3672 35.3835 89.3672 36.0801C89.3672 37.0241 89.0254 37.776 88.3418 38.3359C87.6647 38.8958 86.7467 39.1758 85.5879 39.1758C84.377 39.1758 83.2083 38.9186 82.082 38.4043L82.668 36.7832C83.306 37.0501 83.8398 37.2389 84.2695 37.3496C84.7057 37.4603 85.1387 37.5156 85.5684 37.5156C86.1803 37.5156 86.6523 37.3984 86.9844 37.1641C87.3164 36.9232 87.4824 36.5749 87.4824 36.1191C87.4824 35.8262 87.388 35.5853 87.1992 35.3965C87.0169 35.2012 86.7891 35.0514 86.5156 34.9473C86.2422 34.8366 85.8516 34.6999 85.3438 34.5371C84.7318 34.3353 84.2272 34.1367 83.8301 33.9414C83.4395 33.7396 83.1074 33.4401 82.834 33.043C82.5605 32.6393 82.4238 32.112 82.4238 31.4609C82.4238 30.569 82.7656 29.8594 83.4492 29.332C84.1393 28.8047 85.0573 28.541 86.2031 28.541ZM91.5293 23.9023H93.4043V39H91.5293V23.9023ZM100.406 39H98.1113L93.668 33.1797L97.4668 28.7168H99.6934L95.9531 33.082L100.406 39Z" fill="#0156E1"/>
<defs>
<linearGradient id="paint0_linear_505_32688" x1="5.70408" y1="5.81973" x2="5.70408" y2="53.0612" gradientUnits="userSpaceOnUse">
<stop stop-color="#003EDE"/>
<stop offset="1" stop-color="#00A1E6"/>
</linearGradient>
<linearGradient id="paint1_linear_505_32688" x1="5.70408" y1="5.81973" x2="5.70408" y2="53.0612" gradientUnits="userSpaceOnUse">
<stop stop-color="#003EDE"/>
<stop offset="1" stop-color="#00A1E6"/>
</linearGradient>
</defs>
</svg>
