<svg width="66" height="24" viewBox="0 0 66 24" fill="none" xmlns="http://www.w3.org/2000/svg">
<rect x="1" y="0.5" width="64" height="23" rx="11.5" stroke="#C7CED6"/>
<path d="M15.1777 15.0034V16H10.5566V15.0034H15.1777ZM10.7979 6.75781V16H9.57275V6.75781H10.7979ZM16.2518 12.6421V12.4961C16.2518 12.001 16.3237 11.5418 16.4676 11.1187C16.6115 10.6912 16.8189 10.321 17.0897 10.0078C17.3605 9.69043 17.6885 9.44499 18.0736 9.27148C18.4587 9.09375 18.8903 9.00488 19.3685 9.00488C19.8509 9.00488 20.2847 9.09375 20.6698 9.27148C21.0591 9.44499 21.3892 9.69043 21.66 10.0078C21.9351 10.321 22.1445 10.6912 22.2884 11.1187C22.4323 11.5418 22.5042 12.001 22.5042 12.4961V12.6421C22.5042 13.1372 22.4323 13.5964 22.2884 14.0195C22.1445 14.4427 21.9351 14.813 21.66 15.1304C21.3892 15.4435 21.0612 15.689 20.6761 15.8667C20.2953 16.0402 19.8636 16.127 19.3812 16.127C18.8988 16.127 18.465 16.0402 18.0799 15.8667C17.6948 15.689 17.3648 15.4435 17.0897 15.1304C16.8189 14.813 16.6115 14.4427 16.4676 14.0195C16.3237 13.5964 16.2518 13.1372 16.2518 12.6421ZM17.4261 12.4961V12.6421C17.4261 12.9849 17.4663 13.3086 17.5467 13.6133C17.6271 13.9137 17.7477 14.1803 17.9085 14.4131C18.0736 14.6458 18.2788 14.8299 18.5243 14.9653C18.7697 15.0965 19.0553 15.1621 19.3812 15.1621C19.7028 15.1621 19.9842 15.0965 20.2254 14.9653C20.4709 14.8299 20.674 14.6458 20.8348 14.4131C20.9956 14.1803 21.1162 13.9137 21.1966 13.6133C21.2813 13.3086 21.3236 12.9849 21.3236 12.6421V12.4961C21.3236 12.1576 21.2813 11.8381 21.1966 11.5376C21.1162 11.2329 20.9935 10.9642 20.8285 10.7314C20.6676 10.4945 20.4645 10.3083 20.2191 10.1729C19.9779 10.0374 19.6943 9.96973 19.3685 9.96973C19.0469 9.96973 18.7634 10.0374 18.5179 10.1729C18.2767 10.3083 18.0736 10.4945 17.9085 10.7314C17.7477 10.9642 17.6271 11.2329 17.5467 11.5376C17.4663 11.8381 17.4261 12.1576 17.4261 12.4961ZM25.8762 14.7812L27.6408 9.13184H28.4152L28.2629 10.2554L26.4665 16H25.7111L25.8762 14.7812ZM24.6891 9.13184L26.1935 14.8447L26.3014 16H25.508L23.5148 9.13184H24.6891ZM30.1037 14.8003L31.5383 9.13184H32.7062L30.7131 16H29.926L30.1037 14.8003ZM28.5866 9.13184L30.3132 14.686L30.5099 16H29.7609L27.9137 10.2427L27.7614 9.13184H28.5866Z" fill="#272D32"/>
<path d="M49.4997 5.33331C45.813 5.33331 42.833 8.31331 42.833 12C42.833 15.6866 45.813 18.6666 49.4997 18.6666C53.1863 18.6666 56.1663 15.6866 56.1663 12C56.1663 8.31331 53.1863 5.33331 49.4997 5.33331ZM52.833 14.3933L51.893 15.3333L49.4997 12.94L47.1063 15.3333L46.1663 14.3933L48.5597 12L46.1663 9.60665L47.1063 8.66665L49.4997 11.06L51.893 8.66665L52.833 9.60665L50.4397 12L52.833 14.3933Z" fill="#C7CED6"/>
</svg>
