<svg width="68" height="24" viewBox="0 0 68 24" fill="none" xmlns="http://www.w3.org/2000/svg">
<rect x="0.5" y="0.5" width="67" height="23" rx="11.5" stroke="#C7CED6"/>
<path d="M15.1094 10.7314V11.728H10.1074V10.7314H15.1094ZM10.2979 6.75781V16H9.07275V6.75781H10.2979ZM16.1758 6.75781V16H14.957V6.75781H16.1758ZM19.6112 9.13184V16H18.4305V9.13184H19.6112ZM18.3416 7.31006C18.3416 7.11963 18.3988 6.95882 18.513 6.82764C18.6315 6.69645 18.805 6.63086 19.0335 6.63086C19.2578 6.63086 19.4292 6.69645 19.5477 6.82764C19.6704 6.95882 19.7318 7.11963 19.7318 7.31006C19.7318 7.49202 19.6704 7.6486 19.5477 7.77979C19.4292 7.90674 19.2578 7.97021 19.0335 7.97021C18.805 7.97021 18.6315 7.90674 18.513 7.77979C18.3988 7.6486 18.3416 7.49202 18.3416 7.31006ZM26.1061 9.13184H27.1725V15.854C27.1725 16.4591 27.0498 16.9754 26.8044 17.4028C26.5589 17.8302 26.2162 18.154 25.7761 18.374C25.3402 18.5983 24.8366 18.7104 24.2653 18.7104C24.0283 18.7104 23.749 18.6724 23.4274 18.5962C23.11 18.5243 22.7969 18.3994 22.488 18.2217C22.1833 18.0482 21.9273 17.8133 21.7199 17.5171L22.3356 16.8188C22.6234 17.1659 22.9238 17.4071 23.237 17.5425C23.5544 17.6779 23.8675 17.7456 24.1764 17.7456C24.5488 17.7456 24.8705 17.6758 25.1413 17.5361C25.4121 17.3965 25.6216 17.1891 25.7697 16.9141C25.9221 16.6432 25.9982 16.3089 25.9982 15.9111V10.6426L26.1061 9.13184ZM21.3771 12.6421V12.5088C21.3771 11.984 21.4385 11.508 21.5612 11.0806C21.6882 10.6489 21.868 10.2786 22.1008 9.96973C22.3377 9.66081 22.6234 9.42383 22.9577 9.25879C23.292 9.08952 23.6686 9.00488 24.0876 9.00488C24.5192 9.00488 24.8958 9.08105 25.2175 9.2334C25.5433 9.38151 25.8184 9.59945 26.0427 9.88721C26.2712 10.1707 26.451 10.5135 26.5822 10.9155C26.7134 11.3175 26.8044 11.7725 26.8552 12.2803V12.8643C26.8086 13.3678 26.7176 13.8206 26.5822 14.2227C26.451 14.6247 26.2712 14.9674 26.0427 15.251C25.8184 15.5345 25.5433 15.7524 25.2175 15.9048C24.8916 16.0529 24.5108 16.127 24.0749 16.127C23.6644 16.127 23.292 16.0402 22.9577 15.8667C22.6276 15.6932 22.3441 15.4499 22.1071 15.1367C21.8701 14.8236 21.6882 14.4554 21.5612 14.0322C21.4385 13.6048 21.3771 13.1414 21.3771 12.6421ZM22.5514 12.5088V12.6421C22.5514 12.9849 22.5853 13.3065 22.653 13.6069C22.7249 13.9074 22.8329 14.1719 22.9767 14.4004C23.1248 14.6289 23.3132 14.8088 23.5417 14.9399C23.7702 15.0669 24.0431 15.1304 24.3605 15.1304C24.7498 15.1304 25.0715 15.0479 25.3254 14.8828C25.5793 14.7178 25.7803 14.4998 25.9284 14.229C26.0807 13.9582 26.1992 13.6641 26.2839 13.3467V11.8169C26.2373 11.5841 26.1654 11.3599 26.068 11.144C25.9749 10.924 25.8522 10.7293 25.6999 10.5601C25.5518 10.3866 25.3677 10.249 25.1476 10.1475C24.9276 10.0459 24.6694 9.99512 24.3732 9.99512C24.0516 9.99512 23.7744 10.0628 23.5417 10.1982C23.3132 10.3294 23.1248 10.5114 22.9767 10.7441C22.8329 10.9727 22.7249 11.2393 22.653 11.5439C22.5853 11.8444 22.5514 12.166 22.5514 12.5088ZM30.2905 6.25V16H29.1162V6.25H30.2905ZM30.0112 12.3057L29.5225 12.2866C29.5267 11.8169 29.5965 11.3831 29.732 10.9854C29.8674 10.5833 30.0578 10.2342 30.3032 9.93799C30.5487 9.64176 30.8407 9.41325 31.1792 9.25244C31.522 9.0874 31.9007 9.00488 32.3154 9.00488C32.654 9.00488 32.9587 9.05143 33.2295 9.14453C33.5003 9.2334 33.731 9.37728 33.9214 9.57617C34.1161 9.77507 34.2642 10.0332 34.3657 10.3506C34.4673 10.6637 34.5181 11.0467 34.5181 11.4995V16H33.3374V11.4868C33.3374 11.1271 33.2845 10.8394 33.1787 10.6235C33.0729 10.4035 32.9185 10.2448 32.7154 10.1475C32.5122 10.0459 32.2626 9.99512 31.9663 9.99512C31.6743 9.99512 31.4077 10.0565 31.1665 10.1792C30.9295 10.3019 30.7243 10.4712 30.5508 10.687C30.3815 10.9028 30.2482 11.1504 30.1509 11.4297C30.0578 11.7048 30.0112 11.9967 30.0112 12.3057Z" fill="#272D32"/>
<path d="M51.9997 5.33331C48.313 5.33331 45.333 8.31331 45.333 12C45.333 15.6866 48.313 18.6666 51.9997 18.6666C55.6863 18.6666 58.6663 15.6866 58.6663 12C58.6663 8.31331 55.6863 5.33331 51.9997 5.33331ZM55.333 14.3933L54.393 15.3333L51.9997 12.94L49.6063 15.3333L48.6663 14.3933L51.0597 12L48.6663 9.60665L49.6063 8.66665L51.9997 11.06L54.393 8.66665L55.333 9.60665L52.9397 12L55.333 14.3933Z" fill="#C7CED6"/>
</svg>
