<svg width="108" height="24" viewBox="0 0 108 24" fill="none" xmlns="http://www.w3.org/2000/svg">
<rect x="0.5" y="0.5" width="107" height="23" rx="11.5" stroke="#C7CED6"/>
<path d="M10.3867 6.75781V16H9.16162V6.75781H10.3867ZM13.7713 10.5981V16H12.597V9.13184H13.7079L13.7713 10.5981ZM13.492 12.3057L13.0033 12.2866C13.0075 11.8169 13.0773 11.3831 13.2127 10.9854C13.3482 10.5833 13.5386 10.2342 13.784 9.93799C14.0295 9.64176 14.3215 9.41325 14.66 9.25244C15.0028 9.0874 15.3815 9.00488 15.7962 9.00488C16.1348 9.00488 16.4395 9.05143 16.7103 9.14453C16.9811 9.2334 17.2118 9.37728 17.4022 9.57617C17.5968 9.77507 17.745 10.0332 17.8465 10.3506C17.9481 10.6637 17.9989 11.0467 17.9989 11.4995V16H16.8182V11.4868C16.8182 11.1271 16.7653 10.8394 16.6595 10.6235C16.5537 10.4035 16.3993 10.2448 16.1961 10.1475C15.993 10.0459 15.7433 9.99512 15.4471 9.99512C15.1551 9.99512 14.8885 10.0565 14.6473 10.1792C14.4103 10.3019 14.2051 10.4712 14.0316 10.687C13.8623 10.9028 13.729 11.1504 13.6317 11.4297C13.5386 11.7048 13.492 11.9967 13.492 12.3057ZM26.9136 12.3755H24.4444V11.3789H26.9136C27.3918 11.3789 27.779 11.3027 28.0752 11.1504C28.3714 10.998 28.5873 10.7865 28.7227 10.5156C28.8623 10.2448 28.9321 9.93587 28.9321 9.58887C28.9321 9.27148 28.8623 8.97314 28.7227 8.69385C28.5873 8.41455 28.3714 8.19027 28.0752 8.021C27.779 7.84749 27.3918 7.76074 26.9136 7.76074H24.73V16H23.5049V6.75781H26.9136C27.6118 6.75781 28.2022 6.87842 28.6846 7.11963C29.167 7.36084 29.5331 7.69515 29.7827 8.12256C30.0324 8.54574 30.1572 9.03027 30.1572 9.57617C30.1572 10.1686 30.0324 10.6743 29.7827 11.0933C29.5331 11.5122 29.167 11.8317 28.6846 12.0518C28.2022 12.2676 27.6118 12.3755 26.9136 12.3755ZM32.8627 10.2109V16H31.6883V9.13184H32.8309L32.8627 10.2109ZM35.0082 9.09375L35.0018 10.1855C34.9045 10.1644 34.8114 10.1517 34.7225 10.1475C34.6379 10.139 34.5406 10.1348 34.4305 10.1348C34.1597 10.1348 33.9206 10.1771 33.7132 10.2617C33.5059 10.3464 33.3303 10.4648 33.1864 10.6172C33.0425 10.7695 32.9282 10.9515 32.8436 11.1631C32.7632 11.3704 32.7103 11.599 32.6849 11.8486L32.3548 12.0391C32.3548 11.6243 32.395 11.235 32.4754 10.8711C32.5601 10.5072 32.6892 10.1855 32.8627 9.90625C33.0362 9.62272 33.2562 9.40267 33.5228 9.24609C33.7936 9.08529 34.1153 9.00488 34.4877 9.00488C34.5723 9.00488 34.6696 9.01546 34.7796 9.03662C34.8897 9.05355 34.9658 9.07259 35.0082 9.09375ZM35.8156 12.6421V12.4961C35.8156 12.001 35.8876 11.5418 36.0314 11.1187C36.1753 10.6912 36.3827 10.321 36.6535 10.0078C36.9243 9.69043 37.2523 9.44499 37.6374 9.27148C38.0225 9.09375 38.4541 9.00488 38.9323 9.00488C39.4147 9.00488 39.8485 9.09375 40.2336 9.27148C40.6229 9.44499 40.953 9.69043 41.2238 10.0078C41.4989 10.321 41.7084 10.6912 41.8522 11.1187C41.9961 11.5418 42.0681 12.001 42.0681 12.4961V12.6421C42.0681 13.1372 41.9961 13.5964 41.8522 14.0195C41.7084 14.4427 41.4989 14.813 41.2238 15.1304C40.953 15.4435 40.625 15.689 40.2399 15.8667C39.8591 16.0402 39.4274 16.127 38.945 16.127C38.4626 16.127 38.0288 16.0402 37.6437 15.8667C37.2587 15.689 36.9286 15.4435 36.6535 15.1304C36.3827 14.813 36.1753 14.4427 36.0314 14.0195C35.8876 13.5964 35.8156 13.1372 35.8156 12.6421ZM36.9899 12.4961V12.6421C36.9899 12.9849 37.0301 13.3086 37.1105 13.6133C37.1909 13.9137 37.3116 14.1803 37.4724 14.4131C37.6374 14.6458 37.8426 14.8299 38.0881 14.9653C38.3335 15.0965 38.6192 15.1621 38.945 15.1621C39.2666 15.1621 39.548 15.0965 39.7893 14.9653C40.0347 14.8299 40.2378 14.6458 40.3986 14.4131C40.5594 14.1803 40.68 13.9137 40.7604 13.6133C40.8451 13.3086 40.8874 12.9849 40.8874 12.6421V12.4961C40.8874 12.1576 40.8451 11.8381 40.7604 11.5376C40.68 11.2329 40.5573 10.9642 40.3923 10.7314C40.2315 10.4945 40.0284 10.3083 39.7829 10.1729C39.5417 10.0374 39.2582 9.96973 38.9323 9.96973C38.6107 9.96973 38.3272 10.0374 38.0817 10.1729C37.8405 10.3083 37.6374 10.4945 37.4724 10.7314C37.3116 10.9642 37.1909 11.2329 37.1105 11.5376C37.0301 11.8381 36.9899 12.1576 36.9899 12.4961ZM48.1504 9.13184H49.2168V15.854C49.2168 16.4591 49.0941 16.9754 48.8487 17.4028C48.6032 17.8302 48.2605 18.154 47.8204 18.374C47.3845 18.5983 46.8809 18.7104 46.3096 18.7104C46.0726 18.7104 45.7933 18.6724 45.4717 18.5962C45.1543 18.5243 44.8412 18.3994 44.5323 18.2217C44.2276 18.0482 43.9716 17.8133 43.7642 17.5171L44.3799 16.8188C44.6677 17.1659 44.9681 17.4071 45.2813 17.5425C45.5987 17.6779 45.9118 17.7456 46.2207 17.7456C46.5931 17.7456 46.9148 17.6758 47.1856 17.5361C47.4564 17.3965 47.6659 17.1891 47.814 16.9141C47.9663 16.6432 48.0425 16.3089 48.0425 15.9111V10.6426L48.1504 9.13184ZM43.4214 12.6421V12.5088C43.4214 11.984 43.4828 11.508 43.6055 11.0806C43.7325 10.6489 43.9123 10.2786 44.1451 9.96973C44.382 9.66081 44.6677 9.42383 45.002 9.25879C45.3363 9.08952 45.7129 9.00488 46.1319 9.00488C46.5635 9.00488 46.9401 9.08105 47.2618 9.2334C47.5876 9.38151 47.8627 9.59945 48.087 9.88721C48.3155 10.1707 48.4953 10.5135 48.6265 10.9155C48.7577 11.3175 48.8487 11.7725 48.8995 12.2803V12.8643C48.8529 13.3678 48.7619 13.8206 48.6265 14.2227C48.4953 14.6247 48.3155 14.9674 48.087 15.251C47.8627 15.5345 47.5876 15.7524 47.2618 15.9048C46.9359 16.0529 46.5551 16.127 46.1192 16.127C45.7087 16.127 45.3363 16.0402 45.002 15.8667C44.6719 15.6932 44.3884 15.4499 44.1514 15.1367C43.9144 14.8236 43.7325 14.4554 43.6055 14.0322C43.4828 13.6048 43.4214 13.1414 43.4214 12.6421ZM44.5957 12.5088V12.6421C44.5957 12.9849 44.6296 13.3065 44.6973 13.6069C44.7692 13.9074 44.8772 14.1719 45.021 14.4004C45.1691 14.6289 45.3575 14.8088 45.586 14.9399C45.8145 15.0669 46.0874 15.1304 46.4048 15.1304C46.7941 15.1304 47.1158 15.0479 47.3697 14.8828C47.6236 14.7178 47.8246 14.4998 47.9727 14.229C48.125 13.9582 48.2435 13.6641 48.3282 13.3467V11.8169C48.2816 11.5841 48.2097 11.3599 48.1123 11.144C48.0192 10.924 47.8965 10.7293 47.7442 10.5601C47.5961 10.3866 47.412 10.249 47.1919 10.1475C46.9719 10.0459 46.7137 9.99512 46.4175 9.99512C46.0959 9.99512 45.8187 10.0628 45.586 10.1982C45.3575 10.3294 45.1691 10.5114 45.021 10.7441C44.8772 10.9727 44.7692 11.2393 44.6973 11.5439C44.6296 11.8444 44.5957 12.166 44.5957 12.5088ZM52.3348 10.2109V16H51.1605V9.13184H52.3031L52.3348 10.2109ZM54.4804 9.09375L54.474 10.1855C54.3767 10.1644 54.2836 10.1517 54.1947 10.1475C54.1101 10.139 54.0127 10.1348 53.9027 10.1348C53.6319 10.1348 53.3928 10.1771 53.1854 10.2617C52.9781 10.3464 52.8025 10.4648 52.6586 10.6172C52.5147 10.7695 52.4004 10.9515 52.3158 11.1631C52.2354 11.3704 52.1825 11.599 52.1571 11.8486L51.827 12.0391C51.827 11.6243 51.8672 11.235 51.9476 10.8711C52.0323 10.5072 52.1613 10.1855 52.3348 9.90625C52.5083 9.62272 52.7284 9.40267 52.995 9.24609C53.2658 9.08529 53.5874 9.00488 53.9598 9.00488C54.0445 9.00488 54.1418 9.01546 54.2518 9.03662C54.3619 9.05355 54.438 9.07259 54.4804 9.09375ZM58.4489 16.127C57.9708 16.127 57.537 16.0465 57.1477 15.8857C56.7626 15.7207 56.4304 15.4901 56.1511 15.1938C55.876 14.8976 55.6644 14.5464 55.5163 14.1401C55.3682 13.7339 55.2942 13.2896 55.2942 12.8071V12.5405C55.2942 11.9819 55.3767 11.4847 55.5417 11.0488C55.7068 10.6087 55.931 10.2363 56.2146 9.93164C56.4981 9.62695 56.8197 9.39632 57.1794 9.23975C57.5391 9.08317 57.9115 9.00488 58.2966 9.00488C58.7875 9.00488 59.2107 9.08952 59.5661 9.25879C59.9258 9.42806 60.2199 9.66504 60.4485 9.96973C60.677 10.2702 60.8462 10.6257 60.9563 11.0361C61.0663 11.4424 61.1213 11.8867 61.1213 12.3691V12.896H55.9924V11.9375H59.947V11.8486C59.9301 11.5439 59.8666 11.2477 59.7566 10.96C59.6508 10.6722 59.4815 10.4352 59.2487 10.249C59.016 10.0628 58.6986 9.96973 58.2966 9.96973C58.03 9.96973 57.7846 10.0269 57.5603 10.1411C57.336 10.2511 57.1434 10.4162 56.9826 10.6362C56.8218 10.8563 56.697 11.125 56.6081 11.4424C56.5193 11.7598 56.4748 12.1258 56.4748 12.5405V12.8071C56.4748 13.133 56.5193 13.4398 56.6081 13.7275C56.7012 14.0111 56.8345 14.2607 57.008 14.4766C57.1858 14.6924 57.3995 14.8617 57.6491 14.9844C57.903 15.1071 58.1908 15.1685 58.5124 15.1685C58.9271 15.1685 59.2784 15.0838 59.5661 14.9146C59.8539 14.7453 60.1057 14.5189 60.3215 14.2354L61.0324 14.8003C60.8843 15.0246 60.696 15.2383 60.4675 15.4414C60.239 15.6445 59.9576 15.8096 59.6233 15.9365C59.2932 16.0635 58.9017 16.127 58.4489 16.127ZM66.6514 14.1782C66.6514 14.009 66.6133 13.8524 66.5372 13.7085C66.4652 13.5604 66.315 13.4271 66.0865 13.3086C65.8622 13.1859 65.5237 13.0801 65.0709 12.9912C64.69 12.9108 64.3451 12.8156 64.0362 12.7056C63.7315 12.5955 63.4712 12.4622 63.2554 12.3057C63.0438 12.1491 62.8809 11.965 62.7667 11.7534C62.6524 11.5418 62.5953 11.2943 62.5953 11.0107C62.5953 10.7399 62.6545 10.4839 62.773 10.2427C62.8957 10.0015 63.0671 9.78776 63.2872 9.60156C63.5115 9.41536 63.7802 9.26937 64.0933 9.16357C64.4065 9.05778 64.7556 9.00488 65.1407 9.00488C65.6908 9.00488 66.1605 9.10221 66.5499 9.29688C66.9392 9.49154 67.2375 9.75179 67.4449 10.0776C67.6522 10.3993 67.7559 10.7568 67.7559 11.1504H66.5816C66.5816 10.96 66.5245 10.7759 66.4102 10.5981C66.3002 10.4162 66.1373 10.266 65.9214 10.1475C65.7099 10.029 65.4496 9.96973 65.1407 9.96973C64.8148 9.96973 64.5504 10.0205 64.3472 10.1221C64.1483 10.2194 64.0023 10.3442 63.9092 10.4966C63.8204 10.6489 63.7759 10.8097 63.7759 10.979C63.7759 11.106 63.7971 11.2202 63.8394 11.3218C63.886 11.4191 63.9664 11.5101 64.0806 11.5947C64.1949 11.6751 64.3557 11.7513 64.563 11.8232C64.7704 11.8952 65.0349 11.9671 65.3565 12.0391C65.9193 12.166 66.3827 12.3184 66.7466 12.4961C67.1106 12.6738 67.3814 12.8918 67.5591 13.1499C67.7369 13.408 67.8257 13.7212 67.8257 14.0894C67.8257 14.3898 67.7623 14.6649 67.6353 14.9146C67.5126 15.1642 67.3327 15.38 67.0958 15.562C66.863 15.7397 66.5837 15.8794 66.2579 15.981C65.9363 16.0783 65.5744 16.127 65.1724 16.127C64.5673 16.127 64.0552 16.019 63.6363 15.8032C63.2173 15.5874 62.9 15.3081 62.6841 14.9653C62.4683 14.6226 62.3604 14.2607 62.3604 13.8799H63.5411C63.558 14.2015 63.6511 14.4575 63.8204 14.6479C63.9896 14.8341 64.197 14.9674 64.4424 15.0479C64.6879 15.124 64.9312 15.1621 65.1724 15.1621C65.494 15.1621 65.7628 15.1198 65.9786 15.0352C66.1986 14.9505 66.3658 14.8341 66.48 14.686C66.5943 14.5379 66.6514 14.3687 66.6514 14.1782ZM73.5272 14.1782C73.5272 14.009 73.4892 13.8524 73.413 13.7085C73.341 13.5604 73.1908 13.4271 72.9623 13.3086C72.738 13.1859 72.3995 13.0801 71.9467 12.9912C71.5658 12.9108 71.2209 12.8156 70.912 12.7056C70.6073 12.5955 70.3471 12.4622 70.1312 12.3057C69.9197 12.1491 69.7567 11.965 69.6425 11.7534C69.5282 11.5418 69.4711 11.2943 69.4711 11.0107C69.4711 10.7399 69.5303 10.4839 69.6488 10.2427C69.7715 10.0015 69.9429 9.78776 70.163 9.60156C70.3873 9.41536 70.656 9.26937 70.9691 9.16357C71.2823 9.05778 71.6314 9.00488 72.0165 9.00488C72.5666 9.00488 73.0364 9.10221 73.4257 9.29688C73.815 9.49154 74.1133 9.75179 74.3207 10.0776C74.5281 10.3993 74.6317 10.7568 74.6317 11.1504H73.4574C73.4574 10.96 73.4003 10.7759 73.286 10.5981C73.176 10.4162 73.0131 10.266 72.7973 10.1475C72.5857 10.029 72.3254 9.96973 72.0165 9.96973C71.6907 9.96973 71.4262 10.0205 71.223 10.1221C71.0242 10.2194 70.8782 10.3442 70.7851 10.4966C70.6962 10.6489 70.6518 10.8097 70.6518 10.979C70.6518 11.106 70.6729 11.2202 70.7152 11.3218C70.7618 11.4191 70.8422 11.5101 70.9564 11.5947C71.0707 11.6751 71.2315 11.7513 71.4389 11.8232C71.6462 11.8952 71.9107 11.9671 72.2323 12.0391C72.7951 12.166 73.2585 12.3184 73.6225 12.4961C73.9864 12.6738 74.2572 12.8918 74.435 13.1499C74.6127 13.408 74.7016 13.7212 74.7016 14.0894C74.7016 14.3898 74.6381 14.6649 74.5111 14.9146C74.3884 15.1642 74.2086 15.38 73.9716 15.562C73.7388 15.7397 73.4595 15.8794 73.1337 15.981C72.8121 16.0783 72.4503 16.127 72.0482 16.127C71.4431 16.127 70.9311 16.019 70.5121 15.8032C70.0932 15.5874 69.7758 15.3081 69.56 14.9653C69.3441 14.6226 69.2362 14.2607 69.2362 13.8799H70.4169C70.4338 14.2015 70.5269 14.4575 70.6962 14.6479C70.8655 14.8341 71.0728 14.9674 71.3183 15.0479C71.5637 15.124 71.807 15.1621 72.0482 15.1621C72.3699 15.1621 72.6386 15.1198 72.8544 15.0352C73.0744 14.9505 73.2416 14.8341 73.3559 14.686C73.4701 14.5379 73.5272 14.3687 73.5272 14.1782Z" fill="#272D32"/>
<path d="M91.9997 5.33331C88.313 5.33331 85.333 8.31331 85.333 12C85.333 15.6866 88.313 18.6666 91.9997 18.6666C95.6863 18.6666 98.6663 15.6866 98.6663 12C98.6663 8.31331 95.6863 5.33331 91.9997 5.33331ZM95.333 14.3933L94.393 15.3333L91.9997 12.94L89.6063 15.3333L88.6663 14.3933L91.0597 12L88.6663 9.60665L89.6063 8.66665L91.9997 11.06L94.393 8.66665L95.333 9.60665L92.9397 12L95.333 14.3933Z" fill="#C7CED6"/>
</svg>
