<svg width="98" height="24" viewBox="0 0 98 24" fill="none" xmlns="http://www.w3.org/2000/svg">
<rect x="1" y="0.5" width="96" height="23" rx="11.5" stroke="#C7CED6"/>
<path d="M15.1523 13.061H16.3711C16.3076 13.645 16.1405 14.1676 15.8696 14.6289C15.5988 15.0902 15.2158 15.4562 14.7207 15.7271C14.2256 15.9937 13.6077 16.127 12.8672 16.127C12.3255 16.127 11.8325 16.0254 11.3882 15.8223C10.9481 15.6191 10.5693 15.3314 10.252 14.959C9.93457 14.5824 9.68913 14.1317 9.51562 13.6069C9.34635 13.078 9.26172 12.4897 9.26172 11.8423V10.9219C9.26172 10.2744 9.34635 9.68831 9.51562 9.16357C9.68913 8.6346 9.93669 8.1818 10.2583 7.80518C10.5841 7.42855 10.9756 7.13867 11.4326 6.93555C11.8896 6.73242 12.4038 6.63086 12.9751 6.63086C13.6733 6.63086 14.2637 6.76204 14.7461 7.02441C15.2285 7.28678 15.603 7.65072 15.8696 8.11621C16.1405 8.57747 16.3076 9.11279 16.3711 9.72217H15.1523C15.0931 9.29053 14.9831 8.92025 14.8223 8.61133C14.6615 8.29818 14.4329 8.05697 14.1367 7.8877C13.8405 7.71842 13.4533 7.63379 12.9751 7.63379C12.5646 7.63379 12.2028 7.71208 11.8896 7.86865C11.5807 8.02523 11.3205 8.2474 11.1089 8.53516C10.9015 8.82292 10.745 9.16781 10.6392 9.56982C10.5334 9.97184 10.4805 10.4183 10.4805 10.9092V11.8423C10.4805 12.2951 10.527 12.7204 10.6201 13.1182C10.7174 13.516 10.8634 13.8651 11.0581 14.1655C11.2528 14.466 11.5003 14.703 11.8008 14.8765C12.1012 15.0457 12.4567 15.1304 12.8672 15.1304C13.3877 15.1304 13.8024 15.0479 14.1113 14.8828C14.4202 14.7178 14.653 14.4808 14.8096 14.1719C14.9704 13.863 15.0846 13.4927 15.1523 13.061ZM17.7118 12.6421V12.4961C17.7118 12.001 17.7837 11.5418 17.9276 11.1187C18.0715 10.6912 18.2788 10.321 18.5496 10.0078C18.8205 9.69043 19.1484 9.44499 19.5335 9.27148C19.9186 9.09375 20.3503 9.00488 20.8285 9.00488C21.3109 9.00488 21.7446 9.09375 22.1297 9.27148C22.519 9.44499 22.8491 9.69043 23.12 10.0078C23.395 10.321 23.6045 10.6912 23.7484 11.1187C23.8923 11.5418 23.9642 12.001 23.9642 12.4961V12.6421C23.9642 13.1372 23.8923 13.5964 23.7484 14.0195C23.6045 14.4427 23.395 14.813 23.12 15.1304C22.8491 15.4435 22.5212 15.689 22.1361 15.8667C21.7552 16.0402 21.3236 16.127 20.8412 16.127C20.3587 16.127 19.925 16.0402 19.5399 15.8667C19.1548 15.689 18.8247 15.4435 18.5496 15.1304C18.2788 14.813 18.0715 14.4427 17.9276 14.0195C17.7837 13.5964 17.7118 13.1372 17.7118 12.6421ZM18.8861 12.4961V12.6421C18.8861 12.9849 18.9263 13.3086 19.0067 13.6133C19.0871 13.9137 19.2077 14.1803 19.3685 14.4131C19.5335 14.6458 19.7388 14.8299 19.9842 14.9653C20.2297 15.0965 20.5153 15.1621 20.8412 15.1621C21.1628 15.1621 21.4442 15.0965 21.6854 14.9653C21.9308 14.8299 22.134 14.6458 22.2948 14.4131C22.4556 14.1803 22.5762 13.9137 22.6566 13.6133C22.7412 13.3086 22.7835 12.9849 22.7835 12.6421V12.4961C22.7835 12.1576 22.7412 11.8381 22.6566 11.5376C22.5762 11.2329 22.4535 10.9642 22.2884 10.7314C22.1276 10.4945 21.9245 10.3083 21.679 10.1729C21.4378 10.0374 21.1543 9.96973 20.8285 9.96973C20.5068 9.96973 20.2233 10.0374 19.9779 10.1729C19.7367 10.3083 19.5335 10.4945 19.3685 10.7314C19.2077 10.9642 19.0871 11.2329 19.0067 11.5376C18.9263 11.8381 18.8861 12.1576 18.8861 12.4961ZM26.7648 10.4966V16H25.5842V9.13184H26.7013L26.7648 10.4966ZM26.5236 12.3057L25.9777 12.2866C25.9819 11.8169 26.0433 11.3831 26.1618 10.9854C26.2803 10.5833 26.4559 10.2342 26.6887 9.93799C26.9214 9.64176 27.2113 9.41325 27.5583 9.25244C27.9053 9.0874 28.3073 9.00488 28.7643 9.00488C29.086 9.00488 29.3822 9.05143 29.653 9.14453C29.9238 9.2334 30.1587 9.37516 30.3576 9.56982C30.5565 9.76449 30.711 10.0142 30.821 10.3188C30.931 10.6235 30.986 10.9917 30.986 11.4233V16H29.8117V11.4805C29.8117 11.1208 29.7503 10.833 29.6276 10.6172C29.5091 10.4014 29.3399 10.2448 29.1198 10.1475C28.8998 10.0459 28.6416 9.99512 28.3454 9.99512C27.9984 9.99512 27.7085 10.0565 27.4758 10.1792C27.243 10.3019 27.0568 10.4712 26.9172 10.687C26.7775 10.9028 26.676 11.1504 26.6125 11.4297C26.5532 11.7048 26.5236 11.9967 26.5236 12.3057ZM30.9733 11.6582L30.1862 11.8994C30.1904 11.5228 30.2518 11.161 30.3703 10.814C30.493 10.467 30.6686 10.158 30.8971 9.88721C31.1299 9.61637 31.4155 9.40267 31.7541 9.24609C32.0926 9.08529 32.4798 9.00488 32.9157 9.00488C33.2839 9.00488 33.6097 9.05355 33.8932 9.15088C34.181 9.24821 34.4222 9.39844 34.6169 9.60156C34.8158 9.80046 34.966 10.0565 35.0676 10.3696C35.1691 10.6828 35.2199 11.0552 35.2199 11.4868V16H34.0392V11.4741C34.0392 11.089 33.9779 10.7907 33.8552 10.5791C33.7367 10.3633 33.5674 10.2131 33.3473 10.1284C33.1315 10.0396 32.8734 9.99512 32.5729 9.99512C32.3148 9.99512 32.0863 10.0396 31.8874 10.1284C31.6885 10.2173 31.5213 10.34 31.3859 10.4966C31.2505 10.6489 31.1468 10.8245 31.0749 11.0234C31.0072 11.2223 30.9733 11.4339 30.9733 11.6582ZM38.3316 10.4521V18.6406H37.1509V9.13184H38.23L38.3316 10.4521ZM42.959 12.5088V12.6421C42.959 13.1414 42.8998 13.6048 42.7813 14.0322C42.6628 14.4554 42.4893 14.8236 42.2608 15.1367C42.0365 15.4499 41.7593 15.6932 41.4292 15.8667C41.0991 16.0402 40.7204 16.127 40.293 16.127C39.8571 16.127 39.472 16.055 39.1377 15.9111C38.8034 15.7673 38.5199 15.5578 38.2871 15.2827C38.0544 15.0076 37.8682 14.6776 37.7285 14.2925C37.5931 13.9074 37.5 13.4736 37.4492 12.9912V12.2803C37.5 11.7725 37.5952 11.3175 37.7349 10.9155C37.8745 10.5135 38.0586 10.1707 38.2871 9.88721C38.5199 9.59945 38.8013 9.38151 39.1314 9.2334C39.4614 9.08105 39.8423 9.00488 40.2739 9.00488C40.7056 9.00488 41.0886 9.08952 41.4229 9.25879C41.7572 9.42383 42.0386 9.66081 42.2671 9.96973C42.4956 10.2786 42.667 10.6489 42.7813 11.0806C42.8998 11.508 42.959 11.984 42.959 12.5088ZM41.7783 12.6421V12.5088C41.7783 12.166 41.7424 11.8444 41.6704 11.5439C41.5985 11.2393 41.4863 10.9727 41.334 10.7441C41.1859 10.5114 40.9955 10.3294 40.7627 10.1982C40.53 10.0628 40.2528 9.99512 39.9312 9.99512C39.6349 9.99512 39.3768 10.0459 39.1568 10.1475C38.9409 10.249 38.7569 10.3866 38.6045 10.5601C38.4522 10.7293 38.3273 10.924 38.23 11.144C38.1369 11.3599 38.0671 11.5841 38.0205 11.8169V13.4609C38.1052 13.7572 38.2237 14.0365 38.376 14.2988C38.5283 14.557 38.7315 14.7664 38.9854 14.9272C39.2393 15.0838 39.5588 15.1621 39.9439 15.1621C40.2612 15.1621 40.5342 15.0965 40.7627 14.9653C40.9955 14.8299 41.1859 14.6458 41.334 14.4131C41.4863 14.1803 41.5985 13.9137 41.6704 13.6133C41.7424 13.3086 41.7783 12.9849 41.7783 12.6421ZM45.8929 6.25V16H44.7123V6.25H45.8929ZM50.7883 16.127C50.3101 16.127 49.8763 16.0465 49.487 15.8857C49.1019 15.7207 48.7697 15.4901 48.4904 15.1938C48.2154 14.8976 48.0038 14.5464 47.8557 14.1401C47.7076 13.7339 47.6335 13.2896 47.6335 12.8071V12.5405C47.6335 11.9819 47.716 11.4847 47.8811 11.0488C48.0461 10.6087 48.2704 10.2363 48.5539 9.93164C48.8374 9.62695 49.159 9.39632 49.5187 9.23975C49.8784 9.08317 50.2508 9.00488 50.6359 9.00488C51.1268 9.00488 51.55 9.08952 51.9055 9.25879C52.2652 9.42806 52.5593 9.66504 52.7878 9.96973C53.0163 10.2702 53.1856 10.6257 53.2956 11.0361C53.4056 11.4424 53.4606 11.8867 53.4606 12.3691V12.896H48.3317V11.9375H52.2863V11.8486C52.2694 11.5439 52.2059 11.2477 52.0959 10.96C51.9901 10.6722 51.8208 10.4352 51.5881 10.249C51.3553 10.0628 51.038 9.96973 50.6359 9.96973C50.3693 9.96973 50.1239 10.0269 49.8996 10.1411C49.6753 10.2511 49.4828 10.4162 49.322 10.6362C49.1612 10.8563 49.0363 11.125 48.9475 11.4424C48.8586 11.7598 48.8142 12.1258 48.8142 12.5405V12.8071C48.8142 13.133 48.8586 13.4398 48.9475 13.7275C49.0406 14.0111 49.1739 14.2607 49.3474 14.4766C49.5251 14.6924 49.7388 14.8617 49.9885 14.9844C50.2424 15.1071 50.5301 15.1685 50.8518 15.1685C51.2665 15.1685 51.6177 15.0838 51.9055 14.9146C52.1932 14.7453 52.445 14.5189 52.6608 14.2354L53.3718 14.8003C53.2237 15.0246 53.0354 15.2383 52.8068 15.4414C52.5783 15.6445 52.2969 15.8096 51.9626 15.9365C51.6325 16.0635 51.2411 16.127 50.7883 16.127ZM57.8672 9.13184V10.0332H54.1538V9.13184H57.8672ZM55.4107 7.4624H56.585V14.2988C56.585 14.5316 56.621 14.7072 56.6929 14.8257C56.7648 14.9442 56.8579 15.0225 56.9722 15.0605C57.0865 15.0986 57.2092 15.1177 57.3404 15.1177C57.4377 15.1177 57.5393 15.1092 57.6451 15.0923C57.7551 15.0711 57.8376 15.0542 57.8926 15.0415L57.899 16C57.8059 16.0296 57.6831 16.0571 57.5308 16.0825C57.3827 16.1121 57.2028 16.127 56.9912 16.127C56.7035 16.127 56.439 16.0698 56.1978 15.9556C55.9566 15.8413 55.764 15.6509 55.6202 15.3843C55.4805 15.1134 55.4107 14.7495 55.4107 14.2925V7.4624ZM62.2548 16.127C61.7766 16.127 61.3428 16.0465 60.9535 15.8857C60.5684 15.7207 60.2362 15.4901 59.9569 15.1938C59.6818 14.8976 59.4703 14.5464 59.3221 14.1401C59.174 13.7339 59.1 13.2896 59.1 12.8071V12.5405C59.1 11.9819 59.1825 11.4847 59.3475 11.0488C59.5126 10.6087 59.7369 10.2363 60.0204 9.93164C60.3039 9.62695 60.6255 9.39632 60.9852 9.23975C61.3449 9.08317 61.7173 9.00488 62.1024 9.00488C62.5933 9.00488 63.0165 9.08952 63.372 9.25879C63.7317 9.42806 64.0258 9.66504 64.2543 9.96973C64.4828 10.2702 64.6521 10.6257 64.7621 11.0361C64.8721 11.4424 64.9271 11.8867 64.9271 12.3691V12.896H59.7982V11.9375H63.7528V11.8486C63.7359 11.5439 63.6724 11.2477 63.5624 10.96C63.4566 10.6722 63.2873 10.4352 63.0546 10.249C62.8218 10.0628 62.5044 9.96973 62.1024 9.96973C61.8358 9.96973 61.5904 10.0269 61.3661 10.1411C61.1418 10.2511 60.9493 10.4162 60.7885 10.6362C60.6276 10.8563 60.5028 11.125 60.4139 11.4424C60.3251 11.7598 60.2806 12.1258 60.2806 12.5405V12.8071C60.2806 13.133 60.3251 13.4398 60.4139 13.7275C60.507 14.0111 60.6403 14.2607 60.8138 14.4766C60.9916 14.6924 61.2053 14.8617 61.455 14.9844C61.7089 15.1071 61.9966 15.1685 62.3182 15.1685C62.733 15.1685 63.0842 15.0838 63.372 14.9146C63.6597 14.7453 63.9115 14.5189 64.1273 14.2354L64.8383 14.8003C64.6901 15.0246 64.5018 15.2383 64.2733 15.4414C64.0448 15.6445 63.7634 15.8096 63.4291 15.9365C63.099 16.0635 62.7076 16.127 62.2548 16.127Z" fill="#272D32"/>
<path d="M81.4997 5.33331C77.813 5.33331 74.833 8.31331 74.833 12C74.833 15.6866 77.813 18.6666 81.4997 18.6666C85.1863 18.6666 88.1663 15.6866 88.1663 12C88.1663 8.31331 85.1863 5.33331 81.4997 5.33331ZM84.833 14.3933L83.893 15.3333L81.4997 12.94L79.1063 15.3333L78.1663 14.3933L80.5597 12L78.1663 9.60665L79.1063 8.66665L81.4997 11.06L83.893 8.66665L84.833 9.60665L82.4397 12L84.833 14.3933Z" fill="#C7CED6"/>
</svg>
