<svg width="82" height="24" viewBox="0 0 82 24" fill="none" xmlns="http://www.w3.org/2000/svg">
<rect x="0.5" y="0.5" width="81" height="23" rx="11.5" stroke="#C7CED6"/>
<path d="M14.6523 13.061H15.8711C15.8076 13.645 15.6405 14.1676 15.3696 14.6289C15.0988 15.0902 14.7158 15.4562 14.2207 15.7271C13.7256 15.9937 13.1077 16.127 12.3672 16.127C11.8255 16.127 11.3325 16.0254 10.8882 15.8223C10.4481 15.6191 10.0693 15.3314 9.75195 14.959C9.43457 14.5824 9.18913 14.1317 9.01562 13.6069C8.84635 13.078 8.76172 12.4897 8.76172 11.8423V10.9219C8.76172 10.2744 8.84635 9.68831 9.01562 9.16357C9.18913 8.6346 9.43669 8.1818 9.7583 7.80518C10.0841 7.42855 10.4756 7.13867 10.9326 6.93555C11.3896 6.73242 11.9038 6.63086 12.4751 6.63086C13.1733 6.63086 13.7637 6.76204 14.2461 7.02441C14.7285 7.28678 15.103 7.65072 15.3696 8.11621C15.6405 8.57747 15.8076 9.11279 15.8711 9.72217H14.6523C14.5931 9.29053 14.4831 8.92025 14.3223 8.61133C14.1615 8.29818 13.9329 8.05697 13.6367 7.8877C13.3405 7.71842 12.9533 7.63379 12.4751 7.63379C12.0646 7.63379 11.7028 7.71208 11.3896 7.86865C11.0807 8.02523 10.8205 8.2474 10.6089 8.53516C10.4015 8.82292 10.245 9.16781 10.1392 9.56982C10.0334 9.97184 9.98047 10.4183 9.98047 10.9092V11.8423C9.98047 12.2951 10.027 12.7204 10.1201 13.1182C10.2174 13.516 10.3634 13.8651 10.5581 14.1655C10.7528 14.466 11.0003 14.703 11.3008 14.8765C11.6012 15.0457 11.9567 15.1304 12.3672 15.1304C12.8877 15.1304 13.3024 15.0479 13.6113 14.8828C13.9202 14.7178 14.153 14.4808 14.3096 14.1719C14.4704 13.863 14.5846 13.4927 14.6523 13.061ZM18.6971 10.2109V16H17.5228V9.13184H18.6654L18.6971 10.2109ZM20.8426 9.09375L20.8363 10.1855C20.7389 10.1644 20.6458 10.1517 20.557 10.1475C20.4723 10.139 20.375 10.1348 20.265 10.1348C19.9941 10.1348 19.7551 10.1771 19.5477 10.2617C19.3403 10.3464 19.1647 10.4648 19.0208 10.6172C18.877 10.7695 18.7627 10.9515 18.6781 11.1631C18.5977 11.3704 18.5448 11.599 18.5194 11.8486L18.1893 12.0391C18.1893 11.6243 18.2295 11.235 18.3099 10.8711C18.3945 10.5072 18.5236 10.1855 18.6971 9.90625C18.8706 9.62272 19.0907 9.40267 19.3573 9.24609C19.6281 9.08529 19.9497 9.00488 20.3221 9.00488C20.4067 9.00488 20.5041 9.01546 20.6141 9.03662C20.7241 9.05355 20.8003 9.07259 20.8426 9.09375ZM23.3639 9.13184V16H22.1833V9.13184H23.3639ZM22.0944 7.31006C22.0944 7.11963 22.1515 6.95882 22.2658 6.82764C22.3843 6.69645 22.5578 6.63086 22.7863 6.63086C23.0106 6.63086 23.182 6.69645 23.3005 6.82764C23.4232 6.95882 23.4846 7.11963 23.4846 7.31006C23.4846 7.49202 23.4232 7.6486 23.3005 7.77979C23.182 7.90674 23.0106 7.97021 22.7863 7.97021C22.5578 7.97021 22.3843 7.90674 22.2658 7.77979C22.1515 7.6486 22.0944 7.49202 22.0944 7.31006ZM28.2847 9.13184V10.0332H24.5713V9.13184H28.2847ZM25.8281 7.4624H27.0025V14.2988C27.0025 14.5316 27.0384 14.7072 27.1104 14.8257C27.1823 14.9442 27.2754 15.0225 27.3897 15.0605C27.5039 15.0986 27.6266 15.1177 27.7578 15.1177C27.8552 15.1177 27.9567 15.1092 28.0625 15.0923C28.1725 15.0711 28.2551 15.0542 28.3101 15.0415L28.3164 16C28.2233 16.0296 28.1006 16.0571 27.9483 16.0825C27.8001 16.1121 27.6203 16.127 27.4087 16.127C27.121 16.127 26.8565 16.0698 26.6153 15.9556C26.374 15.8413 26.1815 15.6509 26.0376 15.3843C25.898 15.1134 25.8281 14.7495 25.8281 14.2925V7.4624ZM31.098 9.13184V16H29.9173V9.13184H31.098ZM29.8285 7.31006C29.8285 7.11963 29.8856 6.95882 29.9999 6.82764C30.1184 6.69645 30.2919 6.63086 30.5204 6.63086C30.7447 6.63086 30.916 6.69645 31.0345 6.82764C31.1573 6.95882 31.2186 7.11963 31.2186 7.31006C31.2186 7.49202 31.1573 7.6486 31.0345 7.77979C30.916 7.90674 30.7447 7.97021 30.5204 7.97021C30.2919 7.97021 30.1184 7.90674 29.9999 7.77979C29.8856 7.6486 29.8285 7.49202 29.8285 7.31006ZM35.8918 15.1621C36.1711 15.1621 36.4292 15.105 36.6662 14.9907C36.9032 14.8765 37.0979 14.7199 37.2502 14.521C37.4025 14.3179 37.4893 14.0872 37.5104 13.8291H38.6276C38.6065 14.2354 38.4689 14.6141 38.215 14.9653C37.9654 15.3123 37.6374 15.5938 37.2312 15.8096C36.8249 16.0212 36.3784 16.127 35.8918 16.127C35.3755 16.127 34.9248 16.036 34.5397 15.854C34.1589 15.672 33.8415 15.4224 33.5876 15.105C33.3379 14.7876 33.1496 14.4237 33.0227 14.0132C32.8999 13.5985 32.8386 13.1605 32.8386 12.6992V12.4326C32.8386 11.9714 32.8999 11.5355 33.0227 11.125C33.1496 10.7103 33.3379 10.3442 33.5876 10.0269C33.8415 9.70947 34.1589 9.4598 34.5397 9.27783C34.9248 9.09587 35.3755 9.00488 35.8918 9.00488C36.4292 9.00488 36.899 9.11491 37.301 9.33496C37.703 9.55078 38.0183 9.84701 38.2468 10.2236C38.4795 10.596 38.6065 11.0192 38.6276 11.4932H37.5104C37.4893 11.2096 37.4089 10.9536 37.2692 10.7251C37.1338 10.4966 36.9476 10.3146 36.7106 10.1792C36.4779 10.0396 36.2049 9.96973 35.8918 9.96973C35.5321 9.96973 35.2295 10.0417 34.9841 10.1855C34.7429 10.3252 34.5503 10.5156 34.4064 10.7568C34.2668 10.9938 34.1652 11.2583 34.1018 11.5503C34.0425 11.8381 34.0129 12.1322 34.0129 12.4326V12.6992C34.0129 12.9997 34.0425 13.2959 34.1018 13.5879C34.161 13.8799 34.2604 14.1444 34.4001 14.3813C34.544 14.6183 34.7365 14.8088 34.9777 14.9526C35.2232 15.0923 35.5279 15.1621 35.8918 15.1621ZM44.1578 14.8257V11.29C44.1578 11.0192 44.1027 10.7843 43.9927 10.5854C43.8869 10.3823 43.7261 10.2257 43.5103 10.1157C43.2945 10.0057 43.0279 9.95068 42.7105 9.95068C42.4143 9.95068 42.154 10.0015 41.9297 10.103C41.7097 10.2046 41.5362 10.3379 41.4092 10.5029C41.2865 10.668 41.2251 10.8457 41.2251 11.0361H40.0508C40.0508 10.7907 40.1143 10.5474 40.2412 10.3062C40.3682 10.0649 40.5502 9.84701 40.7871 9.65234C41.0284 9.45345 41.3161 9.29688 41.6504 9.18262C41.989 9.06413 42.3656 9.00488 42.7803 9.00488C43.2797 9.00488 43.7198 9.08952 44.1006 9.25879C44.4857 9.42806 44.7862 9.68408 45.002 10.0269C45.222 10.3654 45.3321 10.7907 45.3321 11.3027V14.502C45.3321 14.7305 45.3511 14.9738 45.3892 15.2319C45.4315 15.4901 45.4929 15.7122 45.5733 15.8984V16H44.3482C44.2889 15.8646 44.2424 15.6847 44.2085 15.4604C44.1747 15.2319 44.1578 15.0203 44.1578 14.8257ZM44.3609 11.8359L44.3736 12.6611H43.1866C42.8523 12.6611 42.5539 12.6886 42.2915 12.7437C42.0292 12.7944 41.8091 12.8727 41.6314 12.9785C41.4537 13.0843 41.3182 13.2176 41.2251 13.3784C41.132 13.535 41.0855 13.7191 41.0855 13.9307C41.0855 14.1465 41.1342 14.3433 41.2315 14.521C41.3288 14.6987 41.4748 14.8405 41.6695 14.9463C41.8684 15.0479 42.1117 15.0986 42.3995 15.0986C42.7592 15.0986 43.0765 15.0225 43.3516 14.8701C43.6267 14.7178 43.8446 14.5316 44.0054 14.3115C44.1704 14.0915 44.2593 13.8778 44.272 13.6704L44.7735 14.2354C44.7439 14.4131 44.6634 14.6099 44.5323 14.8257C44.4011 15.0415 44.2255 15.2489 44.0054 15.4478C43.7896 15.6424 43.5315 15.8053 43.231 15.9365C42.9348 16.0635 42.6005 16.127 42.2281 16.127C41.7626 16.127 41.3542 16.036 41.003 15.854C40.656 15.672 40.3851 15.4287 40.1905 15.124C40 14.8151 39.9048 14.4702 39.9048 14.0894C39.9048 13.7212 39.9768 13.3975 40.1206 13.1182C40.2645 12.8346 40.4719 12.5998 40.7427 12.4136C41.0135 12.2231 41.3394 12.0793 41.7203 11.9819C42.1011 11.8846 42.5264 11.8359 42.9961 11.8359H44.3609ZM48.6151 6.25V16H47.4345V6.25H48.6151Z" fill="#272D32"/>
<path d="M65.9997 5.33331C62.313 5.33331 59.333 8.31331 59.333 12C59.333 15.6866 62.313 18.6666 65.9997 18.6666C69.6863 18.6666 72.6663 15.6866 72.6663 12C72.6663 8.31331 69.6863 5.33331 65.9997 5.33331ZM69.333 14.3933L68.393 15.3333L65.9997 12.94L63.6063 15.3333L62.6663 14.3933L65.0597 12L62.6663 9.60665L63.6063 8.66665L65.9997 11.06L68.393 8.66665L69.333 9.60665L66.9397 12L69.333 14.3933Z" fill="#C7CED6"/>
</svg>
