<svg width="110" height="24" viewBox="0 0 110 24" fill="none" xmlns="http://www.w3.org/2000/svg">
<rect x="1" y="0.5" width="108" height="23" rx="11.5" stroke="#C7CED6"/>
<path d="M16.6821 6.75781V16H15.4507L10.7979 8.87158V16H9.57275V6.75781H10.7979L15.4697 13.9053V6.75781H16.6821ZM18.5243 12.6421V12.4961C18.5243 12.001 18.5962 11.5418 18.7401 11.1187C18.884 10.6912 19.0913 10.321 19.3621 10.0078C19.633 9.69043 19.9609 9.44499 20.346 9.27148C20.7311 9.09375 21.1628 9.00488 21.641 9.00488C22.1234 9.00488 22.5571 9.09375 22.9422 9.27148C23.3315 9.44499 23.6616 9.69043 23.9325 10.0078C24.2075 10.321 24.417 10.6912 24.5609 11.1187C24.7048 11.5418 24.7767 12.001 24.7767 12.4961V12.6421C24.7767 13.1372 24.7048 13.5964 24.5609 14.0195C24.417 14.4427 24.2075 14.813 23.9325 15.1304C23.6616 15.4435 23.3337 15.689 22.9486 15.8667C22.5677 16.0402 22.1361 16.127 21.6537 16.127C21.1712 16.127 20.7375 16.0402 20.3524 15.8667C19.9673 15.689 19.6372 15.4435 19.3621 15.1304C19.0913 14.813 18.884 14.4427 18.7401 14.0195C18.5962 13.5964 18.5243 13.1372 18.5243 12.6421ZM19.6986 12.4961V12.6421C19.6986 12.9849 19.7388 13.3086 19.8192 13.6133C19.8996 13.9137 20.0202 14.1803 20.181 14.4131C20.346 14.6458 20.5513 14.8299 20.7967 14.9653C21.0422 15.0965 21.3278 15.1621 21.6537 15.1621C21.9753 15.1621 22.2567 15.0965 22.4979 14.9653C22.7433 14.8299 22.9465 14.6458 23.1073 14.4131C23.2681 14.1803 23.3887 13.9137 23.4691 13.6133C23.5537 13.3086 23.596 12.9849 23.596 12.6421V12.4961C23.596 12.1576 23.5537 11.8381 23.4691 11.5376C23.3887 11.2329 23.266 10.9642 23.1009 10.7314C22.9401 10.4945 22.737 10.3083 22.4915 10.1729C22.2503 10.0374 21.9668 9.96973 21.641 9.96973C21.3193 9.96973 21.0358 10.0374 20.7904 10.1729C20.5492 10.3083 20.346 10.4945 20.181 10.7314C20.0202 10.9642 19.8996 11.2329 19.8192 11.5376C19.7388 11.8381 19.6986 12.1576 19.6986 12.4961ZM29.2848 9.13184V10.0332H25.5715V9.13184H29.2848ZM26.8283 7.4624H28.0026V14.2988C28.0026 14.5316 28.0386 14.7072 28.1105 14.8257C28.1825 14.9442 28.2756 15.0225 28.3898 15.0605C28.5041 15.0986 28.6268 15.1177 28.758 15.1177C28.8553 15.1177 28.9569 15.1092 29.0627 15.0923C29.1727 15.0711 29.2552 15.0542 29.3102 15.0415L29.3166 16C29.2235 16.0296 29.1008 16.0571 28.9484 16.0825C28.8003 16.1121 28.6205 16.127 28.4089 16.127C28.1211 16.127 27.8566 16.0698 27.6154 15.9556C27.3742 15.8413 27.1817 15.6509 27.0378 15.3843C26.8981 15.1134 26.8283 14.7495 26.8283 14.2925V7.4624ZM39.3104 13.6641C39.3104 13.4482 39.2766 13.2578 39.2088 13.0928C39.1454 12.9235 39.0311 12.7712 38.8661 12.6357C38.7053 12.5003 38.481 12.3713 38.1932 12.2485C37.9097 12.1258 37.55 12.001 37.1141 11.874C36.6571 11.7386 36.2445 11.5884 35.8763 11.4233C35.5082 11.2541 35.1929 11.0615 34.9305 10.8457C34.6682 10.6299 34.4671 10.3823 34.3275 10.103C34.1879 9.82373 34.118 9.50423 34.118 9.14453C34.118 8.78483 34.1921 8.45264 34.3402 8.14795C34.4883 7.84326 34.6999 7.57878 34.975 7.35449C35.2543 7.12598 35.5865 6.94824 35.9715 6.82129C36.3566 6.69434 36.7862 6.63086 37.2601 6.63086C37.9541 6.63086 38.5423 6.76416 39.0248 7.03076C39.5114 7.29313 39.8817 7.63802 40.1356 8.06543C40.3895 8.48861 40.5165 8.94141 40.5165 9.42383H39.2977C39.2977 9.07682 39.2237 8.77002 39.0755 8.50342C38.9274 8.23258 38.7032 8.021 38.4027 7.86865C38.1022 7.71208 37.7214 7.63379 37.2601 7.63379C36.8242 7.63379 36.4645 7.69938 36.181 7.83057C35.8975 7.96175 35.6859 8.13949 35.5462 8.36377C35.4108 8.58805 35.3431 8.84408 35.3431 9.13184C35.3431 9.3265 35.3833 9.50423 35.4637 9.66504C35.5484 9.82161 35.6774 9.96761 35.8509 10.103C36.0287 10.2384 36.253 10.3633 36.5238 10.4775C36.7989 10.5918 37.1268 10.7018 37.5077 10.8076C38.0324 10.9557 38.4852 11.1208 38.8661 11.3027C39.2469 11.4847 39.5601 11.6899 39.8055 11.9185C40.0552 12.1427 40.2393 12.3988 40.3578 12.6865C40.4805 12.9701 40.5419 13.2917 40.5419 13.6514C40.5419 14.028 40.4657 14.3687 40.3133 14.6733C40.161 14.978 39.9431 15.2383 39.6595 15.4541C39.376 15.6699 39.0353 15.8371 38.6376 15.9556C38.244 16.0698 37.8039 16.127 37.3172 16.127C36.8898 16.127 36.4688 16.0677 36.0541 15.9492C35.6436 15.8307 35.2691 15.653 34.9305 15.416C34.5962 15.179 34.3275 14.887 34.1244 14.54C33.9255 14.1888 33.826 13.7826 33.826 13.3213H35.0448C35.0448 13.6387 35.1061 13.9116 35.2289 14.1401C35.3516 14.3644 35.5187 14.5506 35.7303 14.6987C35.9462 14.8468 36.1895 14.9569 36.4603 15.0288C36.7354 15.0965 37.021 15.1304 37.3172 15.1304C37.7447 15.1304 38.1065 15.0711 38.4027 14.9526C38.6989 14.8341 38.9232 14.6649 39.0755 14.4448C39.2321 14.2248 39.3104 13.9645 39.3104 13.6641ZM44.9611 9.13184V10.0332H41.2478V9.13184H44.9611ZM42.5046 7.4624H43.6789V14.2988C43.6789 14.5316 43.7149 14.7072 43.7868 14.8257C43.8588 14.9442 43.9519 15.0225 44.0661 15.0605C44.1804 15.0986 44.3031 15.1177 44.4343 15.1177C44.5316 15.1177 44.6332 15.1092 44.739 15.0923C44.849 15.0711 44.9315 15.0542 44.9865 15.0415L44.9929 16C44.8998 16.0296 44.7771 16.0571 44.6247 16.0825C44.4766 16.1121 44.2967 16.127 44.0852 16.127C43.7974 16.127 43.5329 16.0698 43.2917 15.9556C43.0505 15.8413 42.8579 15.6509 42.7141 15.3843C42.5744 15.1134 42.5046 14.7495 42.5046 14.2925V7.4624ZM50.5484 14.8257V11.29C50.5484 11.0192 50.4934 10.7843 50.3833 10.5854C50.2775 10.3823 50.1167 10.2257 49.9009 10.1157C49.6851 10.0057 49.4185 9.95068 49.1011 9.95068C48.8049 9.95068 48.5446 10.0015 48.3204 10.103C48.1003 10.2046 47.9268 10.3379 47.7998 10.5029C47.6771 10.668 47.6158 10.8457 47.6158 11.0361H46.4414C46.4414 10.7907 46.5049 10.5474 46.6319 10.3062C46.7588 10.0649 46.9408 9.84701 47.1778 9.65234C47.419 9.45345 47.7067 9.29688 48.0411 9.18262C48.3796 9.06413 48.7562 9.00488 49.1709 9.00488C49.6703 9.00488 50.1104 9.08952 50.4912 9.25879C50.8763 9.42806 51.1768 9.68408 51.3926 10.0269C51.6127 10.3654 51.7227 10.7907 51.7227 11.3027V14.502C51.7227 14.7305 51.7417 14.9738 51.7798 15.2319C51.8221 15.4901 51.8835 15.7122 51.9639 15.8984V16H50.7388C50.6796 15.8646 50.633 15.6847 50.5992 15.4604C50.5653 15.2319 50.5484 15.0203 50.5484 14.8257ZM50.7515 11.8359L50.7642 12.6611H49.5772C49.2429 12.6611 48.9445 12.6886 48.6822 12.7437C48.4198 12.7944 48.1997 12.8727 48.022 12.9785C47.8443 13.0843 47.7089 13.2176 47.6158 13.3784C47.5227 13.535 47.4761 13.7191 47.4761 13.9307C47.4761 14.1465 47.5248 14.3433 47.6221 14.521C47.7194 14.6987 47.8654 14.8405 48.0601 14.9463C48.259 15.0479 48.5023 15.0986 48.7901 15.0986C49.1498 15.0986 49.4672 15.0225 49.7422 14.8701C50.0173 14.7178 50.2352 14.5316 50.396 14.3115C50.5611 14.0915 50.6499 13.8778 50.6626 13.6704L51.1641 14.2354C51.1345 14.4131 51.0541 14.6099 50.9229 14.8257C50.7917 15.0415 50.6161 15.2489 50.396 15.4478C50.1802 15.6424 49.9221 15.8053 49.6216 15.9365C49.3254 16.0635 48.9911 16.127 48.6187 16.127C48.1532 16.127 47.7448 16.036 47.3936 15.854C47.0466 15.672 46.7758 15.4287 46.5811 15.124C46.3907 14.8151 46.2954 14.4702 46.2954 14.0894C46.2954 13.7212 46.3674 13.3975 46.5113 13.1182C46.6551 12.8346 46.8625 12.5998 47.1333 12.4136C47.4042 12.2231 47.73 12.0793 48.1109 11.9819C48.4917 11.8846 48.917 11.8359 49.3868 11.8359H50.7515ZM54.9042 10.2109V16H53.7299V9.13184H54.8724L54.9042 10.2109ZM57.0497 9.09375L57.0433 10.1855C56.946 10.1644 56.8529 10.1517 56.764 10.1475C56.6794 10.139 56.5821 10.1348 56.472 10.1348C56.2012 10.1348 55.9621 10.1771 55.7548 10.2617C55.5474 10.3464 55.3718 10.4648 55.2279 10.6172C55.084 10.7695 54.9698 10.9515 54.8851 11.1631C54.8047 11.3704 54.7518 11.599 54.7264 11.8486L54.3964 12.0391C54.3964 11.6243 54.4366 11.235 54.517 10.8711C54.6016 10.5072 54.7307 10.1855 54.9042 9.90625C55.0777 9.62272 55.2977 9.40267 55.5643 9.24609C55.8352 9.08529 56.1568 9.00488 56.5292 9.00488C56.6138 9.00488 56.7111 9.01546 56.8212 9.03662C56.9312 9.05355 57.0074 9.07259 57.0497 9.09375ZM61.488 9.13184V10.0332H57.7746V9.13184H61.488ZM59.0315 7.4624H60.2058V14.2988C60.2058 14.5316 60.2418 14.7072 60.3137 14.8257C60.3856 14.9442 60.4787 15.0225 60.593 15.0605C60.7072 15.0986 60.83 15.1177 60.9612 15.1177C61.0585 15.1177 61.16 15.1092 61.2658 15.0923C61.3759 15.0711 61.4584 15.0542 61.5134 15.0415L61.5197 16C61.4266 16.0296 61.3039 16.0571 61.1516 16.0825C61.0035 16.1121 60.8236 16.127 60.612 16.127C60.3243 16.127 60.0598 16.0698 59.8186 15.9556C59.5774 15.8413 59.3848 15.6509 59.2409 15.3843C59.1013 15.1134 59.0315 14.7495 59.0315 14.2925V7.4624ZM65.8755 16.127C65.3974 16.127 64.9636 16.0465 64.5743 15.8857C64.1892 15.7207 63.857 15.4901 63.5777 15.1938C63.3026 14.8976 63.091 14.5464 62.9429 14.1401C62.7948 13.7339 62.7208 13.2896 62.7208 12.8071V12.5405C62.7208 11.9819 62.8033 11.4847 62.9683 11.0488C63.1334 10.6087 63.3576 10.2363 63.6412 9.93164C63.9247 9.62695 64.2463 9.39632 64.606 9.23975C64.9657 9.08317 65.3381 9.00488 65.7232 9.00488C66.2141 9.00488 66.6373 9.08952 66.9927 9.25879C67.3524 9.42806 67.6465 9.66504 67.8751 9.96973C68.1036 10.2702 68.2728 10.6257 68.3829 11.0361C68.4929 11.4424 68.5479 11.8867 68.5479 12.3691V12.896H63.419V11.9375H67.3736V11.8486C67.3567 11.5439 67.2932 11.2477 67.1832 10.96C67.0774 10.6722 66.9081 10.4352 66.6754 10.249C66.4426 10.0628 66.1252 9.96973 65.7232 9.96973C65.4566 9.96973 65.2112 10.0269 64.9869 10.1411C64.7626 10.2511 64.57 10.4162 64.4092 10.6362C64.2484 10.8563 64.1236 11.125 64.0347 11.4424C63.9459 11.7598 63.9014 12.1258 63.9014 12.5405V12.8071C63.9014 13.133 63.9459 13.4398 64.0347 13.7275C64.1278 14.0111 64.2611 14.2607 64.4346 14.4766C64.6124 14.6924 64.8261 14.8617 65.0757 14.9844C65.3296 15.1071 65.6174 15.1685 65.939 15.1685C66.3537 15.1685 66.705 15.0838 66.9927 14.9146C67.2805 14.7453 67.5323 14.5189 67.7481 14.2354L68.459 14.8003C68.3109 15.0246 68.1226 15.2383 67.8941 15.4414C67.6656 15.6445 67.3842 15.8096 67.0499 15.9365C66.7198 16.0635 66.3283 16.127 65.8755 16.127ZM74.4081 14.667V6.25H75.5888V16H74.5097L74.4081 14.667ZM69.787 12.6421V12.5088C69.787 11.984 69.8505 11.508 69.9774 11.0806C70.1086 10.6489 70.2927 10.2786 70.5297 9.96973C70.7709 9.66081 71.0565 9.42383 71.3866 9.25879C71.7209 9.08952 72.0933 9.00488 72.5038 9.00488C72.9354 9.00488 73.3121 9.08105 73.6337 9.2334C73.9595 9.38151 74.2346 9.59945 74.4589 9.88721C74.6874 10.1707 74.8673 10.5135 74.9984 10.9155C75.1296 11.3175 75.2206 11.7725 75.2714 12.2803V12.8643C75.2248 13.3678 75.1339 13.8206 74.9984 14.2227C74.8673 14.6247 74.6874 14.9674 74.4589 15.251C74.2346 15.5345 73.9595 15.7524 73.6337 15.9048C73.3078 16.0529 72.927 16.127 72.4911 16.127C72.0891 16.127 71.7209 16.0402 71.3866 15.8667C71.0565 15.6932 70.7709 15.4499 70.5297 15.1367C70.2927 14.8236 70.1086 14.4554 69.9774 14.0322C69.8505 13.6048 69.787 13.1414 69.787 12.6421ZM70.9677 12.5088V12.6421C70.9677 12.9849 71.0015 13.3065 71.0692 13.6069C71.1412 13.9074 71.2512 14.1719 71.3993 14.4004C71.5474 14.6289 71.7357 14.8088 71.9643 14.9399C72.1928 15.0669 72.4657 15.1304 72.7831 15.1304C73.1724 15.1304 73.4919 15.0479 73.7416 14.8828C73.9955 14.7178 74.1986 14.4998 74.351 14.229C74.5033 13.9582 74.6218 13.6641 74.7064 13.3467V11.8169C74.6557 11.5841 74.5816 11.3599 74.4843 11.144C74.3912 10.924 74.2685 10.7293 74.1161 10.5601C73.968 10.3866 73.7839 10.249 73.5639 10.1475C73.348 10.0459 73.092 9.99512 72.7958 9.99512C72.4742 9.99512 72.197 10.0628 71.9643 10.1982C71.7357 10.3294 71.5474 10.5114 71.3993 10.7441C71.2512 10.9727 71.1412 11.2393 71.0692 11.5439C71.0015 11.8444 70.9677 12.166 70.9677 12.5088Z" fill="#272D32"/>
<path d="M93.4997 5.33331C89.813 5.33331 86.833 8.31331 86.833 12C86.833 15.6866 89.813 18.6666 93.4997 18.6666C97.1863 18.6666 100.166 15.6866 100.166 12C100.166 8.31331 97.1863 5.33331 93.4997 5.33331ZM96.833 14.3933L95.893 15.3333L93.4997 12.94L91.1063 15.3333L90.1663 14.3933L92.5597 12L90.1663 9.60665L91.1063 8.66665L93.4997 11.06L95.893 8.66665L96.833 9.60665L94.4397 12L96.833 14.3933Z" fill="#C7CED6"/>
</svg>
