<svg width="100" height="24" viewBox="0 0 100 24" fill="none" xmlns="http://www.w3.org/2000/svg">
<rect x="1" y="0.5" width="98" height="23" rx="11.5" stroke="#C7CED6"/>
<path d="M15.1523 13.061H16.3711C16.3076 13.645 16.1405 14.1676 15.8696 14.6289C15.5988 15.0902 15.2158 15.4562 14.7207 15.7271C14.2256 15.9937 13.6077 16.127 12.8672 16.127C12.3255 16.127 11.8325 16.0254 11.3882 15.8223C10.9481 15.6191 10.5693 15.3314 10.252 14.959C9.93457 14.5824 9.68913 14.1317 9.51562 13.6069C9.34635 13.078 9.26172 12.4897 9.26172 11.8423V10.9219C9.26172 10.2744 9.34635 9.68831 9.51562 9.16357C9.68913 8.6346 9.93669 8.1818 10.2583 7.80518C10.5841 7.42855 10.9756 7.13867 11.4326 6.93555C11.8896 6.73242 12.4038 6.63086 12.9751 6.63086C13.6733 6.63086 14.2637 6.76204 14.7461 7.02441C15.2285 7.28678 15.603 7.65072 15.8696 8.11621C16.1405 8.57747 16.3076 9.11279 16.3711 9.72217H15.1523C15.0931 9.29053 14.9831 8.92025 14.8223 8.61133C14.6615 8.29818 14.4329 8.05697 14.1367 7.8877C13.8405 7.71842 13.4533 7.63379 12.9751 7.63379C12.5646 7.63379 12.2028 7.71208 11.8896 7.86865C11.5807 8.02523 11.3205 8.2474 11.1089 8.53516C10.9015 8.82292 10.745 9.16781 10.6392 9.56982C10.5334 9.97184 10.4805 10.4183 10.4805 10.9092V11.8423C10.4805 12.2951 10.527 12.7204 10.6201 13.1182C10.7174 13.516 10.8634 13.8651 11.0581 14.1655C11.2528 14.466 11.5003 14.703 11.8008 14.8765C12.1012 15.0457 12.4567 15.1304 12.8672 15.1304C13.3877 15.1304 13.8024 15.0479 14.1113 14.8828C14.4202 14.7178 14.653 14.4808 14.8096 14.1719C14.9704 13.863 15.0846 13.4927 15.1523 13.061ZM22.0726 14.8257V11.29C22.0726 11.0192 22.0176 10.7843 21.9076 10.5854C21.8018 10.3823 21.641 10.2257 21.4251 10.1157C21.2093 10.0057 20.9427 9.95068 20.6253 9.95068C20.3291 9.95068 20.0689 10.0015 19.8446 10.103C19.6245 10.2046 19.451 10.3379 19.3241 10.5029C19.2013 10.668 19.14 10.8457 19.14 11.0361H17.9657C17.9657 10.7907 18.0291 10.5474 18.1561 10.3062C18.283 10.0649 18.465 9.84701 18.702 9.65234C18.9432 9.45345 19.231 9.29688 19.5653 9.18262C19.9038 9.06413 20.2804 9.00488 20.6952 9.00488C21.1945 9.00488 21.6346 9.08952 22.0155 9.25879C22.4006 9.42806 22.701 9.68408 22.9168 10.0269C23.1369 10.3654 23.2469 10.7907 23.2469 11.3027V14.502C23.2469 14.7305 23.266 14.9738 23.304 15.2319C23.3464 15.4901 23.4077 15.7122 23.4881 15.8984V16H22.263C22.2038 15.8646 22.1572 15.6847 22.1234 15.4604C22.0895 15.2319 22.0726 15.0203 22.0726 14.8257ZM22.2757 11.8359L22.2884 12.6611H21.1014C20.7671 12.6611 20.4688 12.6886 20.2064 12.7437C19.944 12.7944 19.724 12.8727 19.5462 12.9785C19.3685 13.0843 19.2331 13.2176 19.14 13.3784C19.0469 13.535 19.0003 13.7191 19.0003 13.9307C19.0003 14.1465 19.049 14.3433 19.1463 14.521C19.2437 14.6987 19.3897 14.8405 19.5843 14.9463C19.7832 15.0479 20.0265 15.0986 20.3143 15.0986C20.674 15.0986 20.9914 15.0225 21.2664 14.8701C21.5415 14.7178 21.7594 14.5316 21.9203 14.3115C22.0853 14.0915 22.1742 13.8778 22.1869 13.6704L22.6883 14.2354C22.6587 14.4131 22.5783 14.6099 22.4471 14.8257C22.3159 15.0415 22.1403 15.2489 21.9203 15.4478C21.7044 15.6424 21.4463 15.8053 21.1458 15.9365C20.8496 16.0635 20.5153 16.127 20.1429 16.127C19.6774 16.127 19.269 16.036 18.9178 15.854C18.5708 15.672 18.3 15.4287 18.1053 15.124C17.9149 14.8151 17.8197 14.4702 17.8197 14.0894C17.8197 13.7212 17.8916 13.3975 18.0355 13.1182C18.1794 12.8346 18.3867 12.5998 18.6576 12.4136C18.9284 12.2231 19.2542 12.0793 19.6351 11.9819C20.016 11.8846 20.4412 11.8359 20.911 11.8359H22.2757ZM26.4284 10.5981V16H25.2541V9.13184H26.3649L26.4284 10.5981ZM26.1491 12.3057L25.6603 12.2866C25.6646 11.8169 25.7344 11.3831 25.8698 10.9854C26.0052 10.5833 26.1957 10.2342 26.4411 9.93799C26.6865 9.64176 26.9785 9.41325 27.3171 9.25244C27.6598 9.0874 28.0386 9.00488 28.4533 9.00488C28.7918 9.00488 29.0965 9.05143 29.3674 9.14453C29.6382 9.2334 29.8688 9.37728 30.0593 9.57617C30.2539 9.77507 30.402 10.0332 30.5036 10.3506C30.6052 10.6637 30.6559 11.0467 30.6559 11.4995V16H29.4753V11.4868C29.4753 11.1271 29.4224 10.8394 29.3166 10.6235C29.2108 10.4035 29.0563 10.2448 28.8532 10.1475C28.6501 10.0459 28.4004 9.99512 28.1042 9.99512C27.8122 9.99512 27.5456 10.0565 27.3044 10.1792C27.0674 10.3019 26.8622 10.4712 26.6887 10.687C26.5194 10.9028 26.3861 11.1504 26.2887 11.4297C26.1957 11.7048 26.1491 11.9967 26.1491 12.3057ZM35.3482 15.1621C35.6275 15.1621 35.8856 15.105 36.1226 14.9907C36.3596 14.8765 36.5542 14.7199 36.7066 14.521C36.8589 14.3179 36.9457 14.0872 36.9668 13.8291H38.084C38.0628 14.2354 37.9253 14.6141 37.6714 14.9653C37.4217 15.3123 37.0938 15.5938 36.6875 15.8096C36.2813 16.0212 35.8348 16.127 35.3482 16.127C34.8319 16.127 34.3812 16.036 33.9961 15.854C33.6153 15.672 33.2979 15.4224 33.044 15.105C32.7943 14.7876 32.606 14.4237 32.479 14.0132C32.3563 13.5985 32.2949 13.1605 32.2949 12.6992V12.4326C32.2949 11.9714 32.3563 11.5355 32.479 11.125C32.606 10.7103 32.7943 10.3442 33.044 10.0269C33.2979 9.70947 33.6153 9.4598 33.9961 9.27783C34.3812 9.09587 34.8319 9.00488 35.3482 9.00488C35.8856 9.00488 36.3553 9.11491 36.7573 9.33496C37.1594 9.55078 37.4746 9.84701 37.7031 10.2236C37.9359 10.596 38.0628 11.0192 38.084 11.4932H36.9668C36.9457 11.2096 36.8653 10.9536 36.7256 10.7251C36.5902 10.4966 36.404 10.3146 36.167 10.1792C35.9343 10.0396 35.6613 9.96973 35.3482 9.96973C34.9885 9.96973 34.6859 10.0417 34.4404 10.1855C34.1992 10.3252 34.0067 10.5156 33.8628 10.7568C33.7232 10.9938 33.6216 11.2583 33.5581 11.5503C33.4989 11.8381 33.4693 12.1322 33.4693 12.4326V12.6992C33.4693 12.9997 33.4989 13.2959 33.5581 13.5879C33.6174 13.8799 33.7168 14.1444 33.8565 14.3813C34.0003 14.6183 34.1929 14.8088 34.4341 14.9526C34.6795 15.0923 34.9842 15.1621 35.3482 15.1621ZM42.4144 16.127C41.9362 16.127 41.5025 16.0465 41.1131 15.8857C40.7281 15.7207 40.3959 15.4901 40.1166 15.1938C39.8415 14.8976 39.6299 14.5464 39.4818 14.1401C39.3337 13.7339 39.2596 13.2896 39.2596 12.8071V12.5405C39.2596 11.9819 39.3421 11.4847 39.5072 11.0488C39.6722 10.6087 39.8965 10.2363 40.18 9.93164C40.4636 9.62695 40.7852 9.39632 41.1449 9.23975C41.5046 9.08317 41.877 9.00488 42.2621 9.00488C42.753 9.00488 43.1761 9.08952 43.5316 9.25879C43.8913 9.42806 44.1854 9.66504 44.4139 9.96973C44.6424 10.2702 44.8117 10.6257 44.9217 11.0361C45.0318 11.4424 45.0868 11.8867 45.0868 12.3691V12.896H39.9579V11.9375H43.9125V11.8486C43.8955 11.5439 43.8321 11.2477 43.722 10.96C43.6162 10.6722 43.447 10.4352 43.2142 10.249C42.9815 10.0628 42.6641 9.96973 42.2621 9.96973C41.9955 9.96973 41.75 10.0269 41.5257 10.1411C41.3015 10.2511 41.1089 10.4162 40.9481 10.6362C40.7873 10.8563 40.6625 11.125 40.5736 11.4424C40.4847 11.7598 40.4403 12.1258 40.4403 12.5405V12.8071C40.4403 13.133 40.4847 13.4398 40.5736 13.7275C40.6667 14.0111 40.8 14.2607 40.9735 14.4766C41.1512 14.6924 41.3649 14.8617 41.6146 14.9844C41.8685 15.1071 42.1563 15.1685 42.4779 15.1685C42.8926 15.1685 43.2438 15.0838 43.5316 14.9146C43.8194 14.7453 44.0712 14.5189 44.287 14.2354L44.9979 14.8003C44.8498 15.0246 44.6615 15.2383 44.433 15.4414C44.2045 15.6445 43.923 15.8096 43.5887 15.9365C43.2587 16.0635 42.8672 16.127 42.4144 16.127ZM47.8937 6.25V16H46.7131V6.25H47.8937ZM51.2149 6.25V16H50.0342V6.25H51.2149ZM56.1102 16.127C55.632 16.127 55.1983 16.0465 54.809 15.8857C54.4239 15.7207 54.0917 15.4901 53.8124 15.1938C53.5373 14.8976 53.3257 14.5464 53.1776 14.1401C53.0295 13.7339 52.9554 13.2896 52.9554 12.8071V12.5405C52.9554 11.9819 53.038 11.4847 53.203 11.0488C53.368 10.6087 53.5923 10.2363 53.8759 9.93164C54.1594 9.62695 54.481 9.39632 54.8407 9.23975C55.2004 9.08317 55.5728 9.00488 55.9579 9.00488C56.4488 9.00488 56.872 9.08952 57.2274 9.25879C57.5871 9.42806 57.8812 9.66504 58.1097 9.96973C58.3383 10.2702 58.5075 10.6257 58.6176 11.0361C58.7276 11.4424 58.7826 11.8867 58.7826 12.3691V12.896H53.6537V11.9375H57.6083V11.8486C57.5914 11.5439 57.5279 11.2477 57.4179 10.96C57.3121 10.6722 57.1428 10.4352 56.91 10.249C56.6773 10.0628 56.3599 9.96973 55.9579 9.96973C55.6913 9.96973 55.4458 10.0269 55.2216 10.1411C54.9973 10.2511 54.8047 10.4162 54.6439 10.6362C54.4831 10.8563 54.3583 11.125 54.2694 11.4424C54.1805 11.7598 54.1361 12.1258 54.1361 12.5405V12.8071C54.1361 13.133 54.1805 13.4398 54.2694 13.7275C54.3625 14.0111 54.4958 14.2607 54.6693 14.4766C54.847 14.6924 55.0608 14.8617 55.3104 14.9844C55.5643 15.1071 55.8521 15.1685 56.1737 15.1685C56.5884 15.1685 56.9397 15.0838 57.2274 14.9146C57.5152 14.7453 57.767 14.5189 57.9828 14.2354L58.6937 14.8003C58.5456 15.0246 58.3573 15.2383 58.1288 15.4414C57.9003 15.6445 57.6189 15.8096 57.2845 15.9365C56.9545 16.0635 56.563 16.127 56.1102 16.127ZM64.6428 14.667V6.25H65.8235V16H64.7444L64.6428 14.667ZM60.0217 12.6421V12.5088C60.0217 11.984 60.0852 11.508 60.2121 11.0806C60.3433 10.6489 60.5274 10.2786 60.7644 9.96973C61.0056 9.66081 61.2912 9.42383 61.6213 9.25879C61.9556 9.08952 62.328 9.00488 62.7385 9.00488C63.1701 9.00488 63.5468 9.08105 63.8684 9.2334C64.1942 9.38151 64.4693 9.59945 64.6936 9.88721C64.9221 10.1707 65.1019 10.5135 65.2331 10.9155C65.3643 11.3175 65.4553 11.7725 65.5061 12.2803V12.8643C65.4595 13.3678 65.3685 13.8206 65.2331 14.2227C65.1019 14.6247 64.9221 14.9674 64.6936 15.251C64.4693 15.5345 64.1942 15.7524 63.8684 15.9048C63.5425 16.0529 63.1617 16.127 62.7258 16.127C62.3238 16.127 61.9556 16.0402 61.6213 15.8667C61.2912 15.6932 61.0056 15.4499 60.7644 15.1367C60.5274 14.8236 60.3433 14.4554 60.2121 14.0322C60.0852 13.6048 60.0217 13.1414 60.0217 12.6421ZM61.2024 12.5088V12.6421C61.2024 12.9849 61.2362 13.3065 61.3039 13.6069C61.3759 13.9074 61.4859 14.1719 61.634 14.4004C61.7821 14.6289 61.9704 14.8088 62.1989 14.9399C62.4275 15.0669 62.7004 15.1304 63.0178 15.1304C63.4071 15.1304 63.7266 15.0479 63.9763 14.8828C64.2302 14.7178 64.4333 14.4998 64.5857 14.229C64.738 13.9582 64.8565 13.6641 64.9411 13.3467V11.8169C64.8904 11.5841 64.8163 11.3599 64.719 11.144C64.6259 10.924 64.5031 10.7293 64.3508 10.5601C64.2027 10.3866 64.0186 10.249 63.7986 10.1475C63.5827 10.0459 63.3267 9.99512 63.0305 9.99512C62.7089 9.99512 62.4317 10.0628 62.1989 10.1982C61.9704 10.3294 61.7821 10.5114 61.634 10.7441C61.4859 10.9727 61.3759 11.2393 61.3039 11.5439C61.2362 11.8444 61.2024 12.166 61.2024 12.5088Z" fill="#272D32"/>
<path d="M83.4997 5.33331C79.813 5.33331 76.833 8.31331 76.833 12C76.833 15.6866 79.813 18.6666 83.4997 18.6666C87.1863 18.6666 90.1663 15.6866 90.1663 12C90.1663 8.31331 87.1863 5.33331 83.4997 5.33331ZM86.833 14.3933L85.893 15.3333L83.4997 12.94L81.1063 15.3333L80.1663 14.3933L82.5597 12L80.1663 9.60665L81.1063 8.66665L83.4997 11.06L85.893 8.66665L86.833 9.60665L84.4397 12L86.833 14.3933Z" fill="#C7CED6"/>
</svg>
